<?xml version="1.0" standalone="no"?>
 <!DOCTYPE svg PUBLIC "-//W3C//DTD SVG 1.1//EN" 
 "http://www.w3.org/Graphics/SVG/1.1/DTD/svg11.dtd"> 
<svg
  xmlns:svg="http://www.w3.org/2000/svg"
  xmlns="http://www.w3.org/2000/svg"
  xmlns:xlink="http://www.w3.org/1999/xlink"
  version="1.1"
  width="8.879840cm" height="5.405120cm" viewBox="0 0 88798400 54051200">
<title>SVG Picture created as wemos-esphome-shield-brd.svg date 2023/05/10 10:12:12 </title>
  <desc>Picture generated by PCBNEW </desc>
<g style="fill:#000000; fill-opacity:1.000000;stroke:#000000; stroke-opacity:1.000000;
stroke-linecap:round; stroke-linejoin:round;"
 transform="translate(0 0) scale(1 1)">
</g>
<g style="fill:#000000; fill-opacity:0.0; 
stroke:#000000; stroke-width:0.000000; stroke-opacity:1; 
stroke-linecap:round; stroke-linejoin:round;">
</g>
<g style="fill:#000000; fill-opacity:0.0; 
stroke:#000000; stroke-width:400000.000000; stroke-opacity:1; 
stroke-linecap:round; stroke-linejoin:round;">
<text x="18550016.000000" y="24800000.000000"
textLength="17528333.000000" font-size="2666666.000000" lengthAdjust="spacingAndGlyphs"
text-anchor="middle" opacity="0">OpenDomus</text>
<g class="stroked-text"><desc>OpenDomus</desc>
<path d="M10740492 22704761
L11121444 22704761
L11311920 22800000
L11502396 22990476
L11597635 23371428
L11597635 24038095
L11502396 24419047
L11311920 24609523
L11121444 24704761
L10740492 24704761
L10550016 24609523
L10359539 24419047
L10264301 24038095
L10264301 23371428
L10359539 22990476
L10550016 22800000
L10740492 22704761
" />
<path d="M12454777 23371428
L12454777 25371428
" />
<path d="M12454777 23466666
L12645254 23371428
L13026206 23371428
L13216682 23466666
L13311920 23561904
L13407158 23752380
L13407158 24323809
L13311920 24514285
L13216682 24609523
L13026206 24704761
L12645254 24704761
L12454777 24609523
" />
<path d="M15026206 24609523
L14835730 24704761
L14454777 24704761
L14264301 24609523
L14169063 24419047
L14169063 23657142
L14264301 23466666
L14454777 23371428
L14835730 23371428
L15026206 23466666
L15121444 23657142
L15121444 23847619
L14169063 24038095
" />
<path d="M15978587 23371428
L15978587 24704761
" />
<path d="M15978587 23561904
L16073825 23466666
L16264301 23371428
L16550016 23371428
L16740492 23466666
L16835730 23657142
L16835730 24704761
" />
<path d="M17788111 24704761
L17788111 22704761
L18264301 22704761
L18550016 22800000
L18740492 22990476
L18835730 23180952
L18930968 23561904
L18930968 23847619
L18835730 24228571
L18740492 24419047
L18550016 24609523
L18264301 24704761
L17788111 24704761
" />
<path d="M20073825 24704761
L19883349 24609523
L19788111 24514285
L19692873 24323809
L19692873 23752380
L19788111 23561904
L19883349 23466666
L20073825 23371428
L20359539 23371428
L20550016 23466666
L20645254 23561904
L20740492 23752380
L20740492 24323809
L20645254 24514285
L20550016 24609523
L20359539 24704761
L20073825 24704761
" />
<path d="M21597635 24704761
L21597635 23371428
" />
<path d="M21597635 23561904
L21692873 23466666
L21883349 23371428
L22169063 23371428
L22359539 23466666
L22454777 23657142
L22454777 24704761
" />
<path d="M22454777 23657142
L22550016 23466666
L22740492 23371428
L23026206 23371428
L23216682 23466666
L23311920 23657142
L23311920 24704761
" />
<path d="M25121444 23371428
L25121444 24704761
" />
<path d="M24264301 23371428
L24264301 24419047
L24359539 24609523
L24550016 24704761
L24835730 24704761
L25026206 24609523
L25121444 24514285
" />
<path d="M25978587 24609523
L26169063 24704761
L26550016 24704761
L26740492 24609523
L26835730 24419047
L26835730 24323809
L26740492 24133333
L26550016 24038095
L26264301 24038095
L26073825 23942857
L25978587 23752380
L25978587 23657142
L26073825 23466666
L26264301 23371428
L26550016 23371428
L26740492 23466666
" />
</g></g>
<g style="fill:#000000; fill-opacity:0.0; 
stroke:#000000; stroke-width:150000.000000; stroke-opacity:1; 
stroke-linecap:round; stroke-linejoin:round;">
<text x="24050016.000000" y="49995000.000000"
textLength="23329524.000000" font-size="1333333.000000" lengthAdjust="spacingAndGlyphs"
text-anchor="middle" opacity="0">Wemos D1 multiplate - rev 1</text>
<g class="stroked-text"><desc>Wemos D1 multiplate - rev 1</desc>
<path d="M12788111 48947380
L13026206 49947380
L13216682 49233095
L13407158 49947380
L13645254 48947380
" />
<path d="M14407158 49899761
L14311920 49947380
L14121444 49947380
L14026206 49899761
L13978587 49804523
L13978587 49423571
L14026206 49328333
L14121444 49280714
L14311920 49280714
L14407158 49328333
L14454777 49423571
L14454777 49518809
L13978587 49614047
" />
<path d="M14883349 49947380
L14883349 49280714
" />
<path d="M14883349 49375952
L14930968 49328333
L15026206 49280714
L15169063 49280714
L15264301 49328333
L15311920 49423571
L15311920 49947380
" />
<path d="M15311920 49423571
L15359539 49328333
L15454777 49280714
L15597635 49280714
L15692873 49328333
L15740492 49423571
L15740492 49947380
" />
<path d="M16359539 49947380
L16264301 49899761
L16216682 49852142
L16169063 49756904
L16169063 49471190
L16216682 49375952
L16264301 49328333
L16359539 49280714
L16502396 49280714
L16597635 49328333
L16645254 49375952
L16692873 49471190
L16692873 49756904
L16645254 49852142
L16597635 49899761
L16502396 49947380
L16359539 49947380
" />
<path d="M17073825 49899761
L17169063 49947380
L17359539 49947380
L17454777 49899761
L17502396 49804523
L17502396 49756904
L17454777 49661666
L17359539 49614047
L17216682 49614047
L17121444 49566428
L17073825 49471190
L17073825 49423571
L17121444 49328333
L17216682 49280714
L17359539 49280714
L17454777 49328333
" />
<path d="M18692873 49947380
L18692873 48947380
L18930968 48947380
L19073825 48995000
L19169063 49090238
L19216682 49185476
L19264301 49375952
L19264301 49518809
L19216682 49709285
L19169063 49804523
L19073825 49899761
L18930968 49947380
L18692873 49947380
" />
<path d="M20216682 49947380
L19645254 49947380
" />
<path d="M19930968 49947380
L19930968 48947380
L19835730 49090238
L19740492 49185476
L19645254 49233095
" />
<path d="M21407158 49947380
L21407158 49280714
" />
<path d="M21407158 49375952
L21454777 49328333
L21550016 49280714
L21692873 49280714
L21788111 49328333
L21835730 49423571
L21835730 49947380
" />
<path d="M21835730 49423571
L21883349 49328333
L21978587 49280714
L22121444 49280714
L22216682 49328333
L22264301 49423571
L22264301 49947380
" />
<path d="M23169063 49280714
L23169063 49947380
" />
<path d="M22740492 49280714
L22740492 49804523
L22788111 49899761
L22883349 49947380
L23026206 49947380
L23121444 49899761
L23169063 49852142
" />
<path d="M23788111 49947380
L23692873 49899761
L23645254 49804523
L23645254 48947380
" />
<path d="M24026206 49280714
L24407158 49280714
" />
<path d="M24169063 48947380
L24169063 49804523
L24216682 49899761
L24311920 49947380
L24407158 49947380
" />
<path d="M24740492 49947380
L24740492 49280714
" />
<path d="M24740492 48947380
L24692873 48995000
L24740492 49042619
L24788111 48995000
L24740492 48947380
L24740492 49042619
" />
<path d="M25216682 49280714
L25216682 50280714
" />
<path d="M25216682 49328333
L25311920 49280714
L25502396 49280714
L25597635 49328333
L25645254 49375952
L25692873 49471190
L25692873 49756904
L25645254 49852142
L25597635 49899761
L25502396 49947380
L25311920 49947380
L25216682 49899761
" />
<path d="M26264301 49947380
L26169063 49899761
L26121444 49804523
L26121444 48947380
" />
<path d="M27073825 49947380
L27073825 49423571
L27026206 49328333
L26930968 49280714
L26740492 49280714
L26645254 49328333
" />
<path d="M27073825 49899761
L26978587 49947380
L26740492 49947380
L26645254 49899761
L26597635 49804523
L26597635 49709285
L26645254 49614047
L26740492 49566428
L26978587 49566428
L27073825 49518809
" />
<path d="M27407158 49280714
L27788111 49280714
" />
<path d="M27550016 48947380
L27550016 49804523
L27597635 49899761
L27692873 49947380
L27788111 49947380
" />
<path d="M28502396 49899761
L28407158 49947380
L28216682 49947380
L28121444 49899761
L28073825 49804523
L28073825 49423571
L28121444 49328333
L28216682 49280714
L28407158 49280714
L28502396 49328333
L28550016 49423571
L28550016 49518809
L28073825 49614047
" />
<path d="M29740492 49566428
L30502396 49566428
" />
<path d="M31740492 49947380
L31740492 49280714
" />
<path d="M31740492 49471190
L31788111 49375952
L31835730 49328333
L31930968 49280714
L32026206 49280714
" />
<path d="M32740492 49899761
L32645254 49947380
L32454777 49947380
L32359539 49899761
L32311920 49804523
L32311920 49423571
L32359539 49328333
L32454777 49280714
L32645254 49280714
L32740492 49328333
L32788111 49423571
L32788111 49518809
L32311920 49614047
" />
<path d="M33121444 49280714
L33359539 49947380
L33597635 49280714
" />
<path d="M35264301 49947380
L34692873 49947380
" />
<path d="M34978587 49947380
L34978587 48947380
L34883349 49090238
L34788111 49185476
L34692873 49233095
" />
</g><text x="24050016.000000" y="51605000.000000"
textLength="7147381.000000" font-size="1333333.000000" lengthAdjust="spacingAndGlyphs"
text-anchor="middle" opacity="0">04-2023</text>
<g class="stroked-text"><desc>04-2023</desc>
<path d="M21002396 50557380
L21097635 50557380
L21192873 50605000
L21240492 50652619
L21288111 50747857
L21335730 50938333
L21335730 51176428
L21288111 51366904
L21240492 51462142
L21192873 51509761
L21097635 51557380
L21002396 51557380
L20907158 51509761
L20859539 51462142
L20811920 51366904
L20764301 51176428
L20764301 50938333
L20811920 50747857
L20859539 50652619
L20907158 50605000
L21002396 50557380
" />
<path d="M22192873 50890714
L22192873 51557380
" />
<path d="M21954777 50509761
L21716682 51224047
L22335730 51224047
" />
<path d="M22716682 51176428
L23478587 51176428
" />
<path d="M23907158 50652619
L23954777 50605000
L24050016 50557380
L24288111 50557380
L24383349 50605000
L24430968 50652619
L24478587 50747857
L24478587 50843095
L24430968 50985952
L23859539 51557380
L24478587 51557380
" />
<path d="M25097635 50557380
L25192873 50557380
L25288111 50605000
L25335730 50652619
L25383349 50747857
L25430968 50938333
L25430968 51176428
L25383349 51366904
L25335730 51462142
L25288111 51509761
L25192873 51557380
L25097635 51557380
L25002396 51509761
L24954777 51462142
L24907158 51366904
L24859539 51176428
L24859539 50938333
L24907158 50747857
L24954777 50652619
L25002396 50605000
L25097635 50557380
" />
<path d="M25811920 50652619
L25859539 50605000
L25954777 50557380
L26192873 50557380
L26288111 50605000
L26335730 50652619
L26383349 50747857
L26383349 50843095
L26335730 50985952
L25764301 51557380
L26383349 51557380
" />
<path d="M26716682 50557380
L27335730 50557380
L27002396 50938333
L27145254 50938333
L27240492 50985952
L27288111 51033571
L27335730 51128809
L27335730 51366904
L27288111 51462142
L27240492 51509761
L27145254 51557380
L26859539 51557380
L26764301 51509761
L26716682 51462142
" />
</g><g transform="rotate(-180.000000 44905016.000000 8850000.000000)">
<text x="44905016.000000" y="9350000.000000"
textLength="4909286.000000" font-size="1333333.000000" lengthAdjust="spacingAndGlyphs"
text-anchor="middle" opacity="0">OLED1</text>
</g>
<g class="stroked-text"><desc>OLED1</desc>
<path d="M46833587 9397619
L46643111 9397619
L46547873 9350000
L46452635 9254761
L46405016 9064285
L46405016 8730952
L46452635 8540476
L46547873 8445238
L46643111 8397619
L46833587 8397619
L46928825 8445238
L47024063 8540476
L47071682 8730952
L47071682 9064285
L47024063 9254761
L46928825 9350000
L46833587 9397619
" />
<path d="M45500254 8397619
L45976444 8397619
L45976444 9397619
" />
<path d="M45166920 8921428
L44833587 8921428
" />
<path d="M44690730 8397619
L45166920 8397619
L45166920 9397619
L44690730 9397619
" />
<path d="M44262158 8397619
L44262158 9397619
L44024063 9397619
L43881206 9350000
L43785968 9254761
L43738349 9159523
L43690730 8969047
L43690730 8826190
L43738349 8635714
L43785968 8540476
L43881206 8445238
L44024063 8397619
L44262158 8397619
" />
<path d="M42738349 8397619
L43309777 8397619
" />
<path d="M43024063 8397619
L43024063 9397619
L43119301 9254761
L43214539 9159523
L43309777 9111904
" />
</g><g transform="rotate(-90.000000 60705016.000000 6550000.000000)">
<text x="60705016.000000" y="7050000.000000"
textLength="9828333.000000" font-size="933333.000000" lengthAdjust="spacingAndGlyphs"
text-anchor="middle" opacity="0">SDA SCL VCC GND</text>
</g>
<g class="stroked-text"><desc>SDA SCL VCC GND</desc>
<path d="M61109777 11233333
L61157396 11133333
L61157396 10966666
L61109777 10900000
L61062158 10866666
L60966920 10833333
L60871682 10833333
L60776444 10866666
L60728825 10900000
L60681206 10966666
L60633587 11100000
L60585968 11166666
L60538349 11200000
L60443111 11233333
L60347873 11233333
L60252635 11200000
L60205016 11166666
L60157396 11100000
L60157396 10933333
L60205016 10833333
" />
<path d="M61157396 10533333
L60157396 10533333
L60157396 10366666
L60205016 10266666
L60300254 10200000
L60395492 10166666
L60585968 10133333
L60728825 10133333
L60919301 10166666
L61014539 10200000
L61109777 10266666
L61157396 10366666
L61157396 10533333
" />
<path d="M60871682 9866666
L60871682 9533333
" />
<path d="M61157396 9933333
L60157396 9700000
L61157396 9466666
" />
<path d="M61109777 8733333
L61157396 8633333
L61157396 8466666
L61109777 8400000
L61062158 8366666
L60966920 8333333
L60871682 8333333
L60776444 8366666
L60728825 8400000
L60681206 8466666
L60633587 8600000
L60585968 8666666
L60538349 8700000
L60443111 8733333
L60347873 8733333
L60252635 8700000
L60205016 8666666
L60157396 8600000
L60157396 8433333
L60205016 8333333
" />
<path d="M61062158 7633333
L61109777 7666666
L61157396 7766666
L61157396 7833333
L61109777 7933333
L61014539 8000000
L60919301 8033333
L60728825 8066666
L60585968 8066666
L60395492 8033333
L60300254 8000000
L60205016 7933333
L60157396 7833333
L60157396 7766666
L60205016 7666666
L60252635 7633333
" />
<path d="M61157396 7000000
L61157396 7333333
L60157396 7333333
" />
<path d="M60157396 6333333
L61157396 6100000
L60157396 5866666
" />
<path d="M61062158 5233333
L61109777 5266666
L61157396 5366666
L61157396 5433333
L61109777 5533333
L61014539 5600000
L60919301 5633333
L60728825 5666666
L60585968 5666666
L60395492 5633333
L60300254 5600000
L60205016 5533333
L60157396 5433333
L60157396 5366666
L60205016 5266666
L60252635 5233333
" />
<path d="M61062158 4533333
L61109777 4566666
L61157396 4666666
L61157396 4733333
L61109777 4833333
L61014539 4900000
L60919301 4933333
L60728825 4966666
L60585968 4966666
L60395492 4933333
L60300254 4900000
L60205016 4833333
L60157396 4733333
L60157396 4666666
L60205016 4566666
L60252635 4533333
" />
<path d="M60205016 3333333
L60157396 3400000
L60157396 3500000
L60205016 3600000
L60300254 3666666
L60395492 3700000
L60585968 3733333
L60728825 3733333
L60919301 3700000
L61014539 3666666
L61109777 3600000
L61157396 3500000
L61157396 3433333
L61109777 3333333
L61062158 3300000
L60728825 3300000
L60728825 3433333
" />
<path d="M61157396 3000000
L60157396 3000000
L61157396 2600000
L60157396 2600000
" />
<path d="M61157396 2266666
L60157396 2266666
L60157396 2100000
L60205016 2000000
L60300254 1933333
L60395492 1900000
L60585968 1866666
L60728825 1866666
L60919301 1900000
L61014539 1933333
L61109777 2000000
L61157396 2100000
L61157396 2266666
" />
</g><text x="44254704.000000" y="20450000.000000"
textLength="3623571.000000" font-size="1333333.000000" lengthAdjust="spacingAndGlyphs"
text-anchor="middle" opacity="0">PIR1</text>
<g class="stroked-text"><desc>PIR1</desc>
<path d="M42778513 20402380
L42778513 19402380
L43159465 19402380
L43254704 19450000
L43302323 19497619
L43349942 19592857
L43349942 19735714
L43302323 19830952
L43254704 19878571
L43159465 19926190
L42778513 19926190
" />
<path d="M43778513 20402380
L43778513 19402380
" />
<path d="M44826132 20402380
L44492799 19926190
" />
<path d="M44254704 20402380
L44254704 19402380
L44635656 19402380
L44730894 19450000
L44778513 19497619
L44826132 19592857
L44826132 19735714
L44778513 19830952
L44730894 19878571
L44635656 19926190
L44254704 19926190
" />
<path d="M45778513 20402380
L45207084 20402380
" />
<path d="M45492799 20402380
L45492799 19402380
L45397561 19545238
L45302323 19640476
L45207084 19688095
" />
</g><text x="44154704.000000" y="28250000.000000"
textLength="7095000.000000" font-size="933333.000000" lengthAdjust="spacingAndGlyphs"
text-anchor="middle" opacity="0">GND VCC SIG</text>
<g class="stroked-text"><desc>GND VCC SIG</desc>
<path d="M41238037 27250000
L41171370 27202380
L41071370 27202380
L40971370 27250000
L40904704 27345238
L40871370 27440476
L40838037 27630952
L40838037 27773809
L40871370 27964285
L40904704 28059523
L40971370 28154761
L41071370 28202380
L41138037 28202380
L41238037 28154761
L41271370 28107142
L41271370 27773809
L41138037 27773809
" />
<path d="M41571370 28202380
L41571370 27202380
L41971370 28202380
L41971370 27202380
" />
<path d="M42304704 28202380
L42304704 27202380
L42471370 27202380
L42571370 27250000
L42638037 27345238
L42671370 27440476
L42704704 27630952
L42704704 27773809
L42671370 27964285
L42638037 28059523
L42571370 28154761
L42471370 28202380
L42304704 28202380
" />
<path d="M43438037 27202380
L43671370 28202380
L43904704 27202380
" />
<path d="M44538037 28107142
L44504704 28154761
L44404704 28202380
L44338037 28202380
L44238037 28154761
L44171370 28059523
L44138037 27964285
L44104704 27773809
L44104704 27630952
L44138037 27440476
L44171370 27345238
L44238037 27250000
L44338037 27202380
L44404704 27202380
L44504704 27250000
L44538037 27297619
" />
<path d="M45238037 28107142
L45204704 28154761
L45104704 28202380
L45038037 28202380
L44938037 28154761
L44871370 28059523
L44838037 27964285
L44804704 27773809
L44804704 27630952
L44838037 27440476
L44871370 27345238
L44938037 27250000
L45038037 27202380
L45104704 27202380
L45204704 27250000
L45238037 27297619
" />
<path d="M46038037 28154761
L46138037 28202380
L46304704 28202380
L46371370 28154761
L46404704 28107142
L46438037 28011904
L46438037 27916666
L46404704 27821428
L46371370 27773809
L46304704 27726190
L46171370 27678571
L46104704 27630952
L46071370 27583333
L46038037 27488095
L46038037 27392857
L46071370 27297619
L46104704 27250000
L46171370 27202380
L46338037 27202380
L46438037 27250000
" />
<path d="M46738037 28202380
L46738037 27202380
" />
<path d="M47438037 27250000
L47371370 27202380
L47271370 27202380
L47171370 27250000
L47104704 27345238
L47071370 27440476
L47038037 27630952
L47038037 27773809
L47071370 27964285
L47104704 28059523
L47171370 28154761
L47271370 28202380
L47338037 28202380
L47438037 28154761
L47471370 28107142
L47471370 27773809
L47338037 27773809
" />
</g><text x="42000016.000000" y="40550000.000000"
textLength="3861667.000000" font-size="1333333.000000" lengthAdjust="spacingAndGlyphs"
text-anchor="middle" opacity="0">LED1</text>
<g class="stroked-text"><desc>LED1</desc>
<path d="M40880968 40502380
L40404777 40502380
L40404777 39502380
" />
<path d="M41214301 39978571
L41547635 39978571
" />
<path d="M41690492 40502380
L41214301 40502380
L41214301 39502380
L41690492 39502380
" />
<path d="M42119063 40502380
L42119063 39502380
L42357158 39502380
L42500016 39550000
L42595254 39645238
L42642873 39740476
L42690492 39930952
L42690492 40073809
L42642873 40264285
L42595254 40359523
L42500016 40454761
L42357158 40502380
L42119063 40502380
" />
<path d="M43642873 40502380
L43071444 40502380
" />
<path d="M43357158 40502380
L43357158 39502380
L43261920 39645238
L43166682 39740476
L43071444 39788095
" />
</g><text x="48500016.000000" y="39650000.000000"
textLength="1961667.000000" font-size="933333.000000" lengthAdjust="spacingAndGlyphs"
text-anchor="end" opacity="0">DIN</text>
<g class="stroked-text"><desc>DIN</desc>
<path d="M46802516 39602380
L46802516 38602380
L46969182 38602380
L47069182 38650000
L47135849 38745238
L47169182 38840476
L47202516 39030952
L47202516 39173809
L47169182 39364285
L47135849 39459523
L47069182 39554761
L46969182 39602380
L46802516 39602380
" />
<path d="M47502516 39602380
L47502516 38602380
" />
<path d="M47835849 39602380
L47835849 38602380
L48235849 39602380
L48235849 38602380
" />
</g><text x="48500016.000000" y="42050000.000000"
textLength="2195000.000000" font-size="933333.000000" lengthAdjust="spacingAndGlyphs"
text-anchor="end" opacity="0">VCC</text>
<g class="stroked-text"><desc>VCC</desc>
<path d="M46469182 41002380
L46702516 42002380
L46935849 41002380
" />
<path d="M47569182 41907142
L47535849 41954761
L47435849 42002380
L47369182 42002380
L47269182 41954761
L47202516 41859523
L47169182 41764285
L47135849 41573809
L47135849 41430952
L47169182 41240476
L47202516 41145238
L47269182 41050000
L47369182 41002380
L47435849 41002380
L47535849 41050000
L47569182 41097619
" />
<path d="M48269182 41907142
L48235849 41954761
L48135849 42002380
L48069182 42002380
L47969182 41954761
L47902516 41859523
L47869182 41764285
L47835849 41573809
L47835849 41430952
L47869182 41240476
L47902516 41145238
L47969182 41050000
L48069182 41002380
L48135849 41002380
L48235849 41050000
L48269182 41097619
" />
</g><text x="48500016.000000" y="44650000.000000"
textLength="2328333.000000" font-size="933333.000000" lengthAdjust="spacingAndGlyphs"
text-anchor="end" opacity="0">GND</text>
<g class="stroked-text"><desc>GND</desc>
<path d="M46802516 43650000
L46735849 43602380
L46635849 43602380
L46535849 43650000
L46469182 43745238
L46435849 43840476
L46402516 44030952
L46402516 44173809
L46435849 44364285
L46469182 44459523
L46535849 44554761
L46635849 44602380
L46702516 44602380
L46802516 44554761
L46835849 44507142
L46835849 44173809
L46702516 44173809
" />
<path d="M47135849 44602380
L47135849 43602380
L47535849 44602380
L47535849 43602380
" />
<path d="M47869182 44602380
L47869182 43602380
L48035849 43602380
L48135849 43650000
L48202516 43745238
L48235849 43840476
L48269182 44030952
L48269182 44173809
L48235849 44364285
L48202516 44459523
L48135849 44554761
L48035849 44602380
L47869182 44602380
" />
</g><text x="26550016.000000" y="33755000.000000"
textLength="4147381.000000" font-size="1333333.000000" lengthAdjust="spacingAndGlyphs"
text-anchor="middle" opacity="0">LUM1</text>
<g class="stroked-text"><desc>LUM1</desc>
<path d="M25288111 33707380
L24811920 33707380
L24811920 32707380
" />
<path d="M25621444 32707380
L25621444 33516904
L25669063 33612142
L25716682 33659761
L25811920 33707380
L26002396 33707380
L26097635 33659761
L26145254 33612142
L26192873 33516904
L26192873 32707380
" />
<path d="M26669063 33707380
L26669063 32707380
L27002396 33421666
L27335730 32707380
L27335730 33707380
" />
<path d="M28335730 33707380
L27764301 33707380
" />
<path d="M28050016 33707380
L28050016 32707380
L27954777 32850238
L27859539 32945476
L27764301 32993095
" />
</g><text x="26550016.000000" y="43155000.000000"
textLength="7095000.000000" font-size="933333.000000" lengthAdjust="spacingAndGlyphs"
text-anchor="middle" opacity="0">SIG GND VCC</text>
<g class="stroked-text"><desc>SIG GND VCC</desc>
<path d="M23233349 43059761
L23333349 43107380
L23500016 43107380
L23566682 43059761
L23600016 43012142
L23633349 42916904
L23633349 42821666
L23600016 42726428
L23566682 42678809
L23500016 42631190
L23366682 42583571
L23300016 42535952
L23266682 42488333
L23233349 42393095
L23233349 42297857
L23266682 42202619
L23300016 42155000
L23366682 42107380
L23533349 42107380
L23633349 42155000
" />
<path d="M23933349 43107380
L23933349 42107380
" />
<path d="M24633349 42155000
L24566682 42107380
L24466682 42107380
L24366682 42155000
L24300016 42250238
L24266682 42345476
L24233349 42535952
L24233349 42678809
L24266682 42869285
L24300016 42964523
L24366682 43059761
L24466682 43107380
L24533349 43107380
L24633349 43059761
L24666682 43012142
L24666682 42678809
L24533349 42678809
" />
<path d="M25866682 42155000
L25800016 42107380
L25700016 42107380
L25600016 42155000
L25533349 42250238
L25500016 42345476
L25466682 42535952
L25466682 42678809
L25500016 42869285
L25533349 42964523
L25600016 43059761
L25700016 43107380
L25766682 43107380
L25866682 43059761
L25900016 43012142
L25900016 42678809
L25766682 42678809
" />
<path d="M26200016 43107380
L26200016 42107380
L26600016 43107380
L26600016 42107380
" />
<path d="M26933349 43107380
L26933349 42107380
L27100016 42107380
L27200016 42155000
L27266682 42250238
L27300016 42345476
L27333349 42535952
L27333349 42678809
L27300016 42869285
L27266682 42964523
L27200016 43059761
L27100016 43107380
L26933349 43107380
" />
<path d="M28066682 42107380
L28300016 43107380
L28533349 42107380
" />
<path d="M29166682 43012142
L29133349 43059761
L29033349 43107380
L28966682 43107380
L28866682 43059761
L28800016 42964523
L28766682 42869285
L28733349 42678809
L28733349 42535952
L28766682 42345476
L28800016 42250238
L28866682 42155000
L28966682 42107380
L29033349 42107380
L29133349 42155000
L29166682 42202619
" />
<path d="M29866682 43012142
L29833349 43059761
L29733349 43107380
L29666682 43107380
L29566682 43059761
L29500016 42964523
L29466682 42869285
L29433349 42678809
L29433349 42535952
L29466682 42345476
L29500016 42250238
L29566682 42155000
L29666682 42107380
L29733349 42107380
L29833349 42155000
L29866682 42202619
" />
</g><text x="63800016.000000" y="40505000.000000"
textLength="4766429.000000" font-size="1333333.000000" lengthAdjust="spacingAndGlyphs"
text-anchor="middle" opacity="0">GEST1</text>
<g class="stroked-text"><desc>GEST1</desc>
<path d="M62276206 39505000
L62180968 39457380
L62038111 39457380
L61895254 39505000
L61800016 39600238
L61752396 39695476
L61704777 39885952
L61704777 40028809
L61752396 40219285
L61800016 40314523
L61895254 40409761
L62038111 40457380
L62133349 40457380
L62276206 40409761
L62323825 40362142
L62323825 40028809
L62133349 40028809
" />
<path d="M62752396 39933571
L63085730 39933571
" />
<path d="M63228587 40457380
L62752396 40457380
L62752396 39457380
L63228587 39457380
" />
<path d="M63609539 40409761
L63752396 40457380
L63990492 40457380
L64085730 40409761
L64133349 40362142
L64180968 40266904
L64180968 40171666
L64133349 40076428
L64085730 40028809
L63990492 39981190
L63800016 39933571
L63704777 39885952
L63657158 39838333
L63609539 39743095
L63609539 39647857
L63657158 39552619
L63704777 39505000
L63800016 39457380
L64038111 39457380
L64180968 39505000
" />
<path d="M64466682 39457380
L65038111 39457380
" />
<path d="M64752396 40457380
L64752396 39457380
" />
<path d="M65895254 40457380
L65323825 40457380
" />
<path d="M65609539 40457380
L65609539 39457380
L65514301 39600238
L65419063 39695476
L65323825 39743095
" />
</g><text x="63800016.000000" y="48505000.000000"
textLength="14195000.000000" font-size="933333.000000" lengthAdjust="spacingAndGlyphs"
text-anchor="middle" opacity="0">VL  GND VCC SDA SCL INT</text>
<g class="stroked-text"><desc>VL  GND VCC SDA SCL INT</desc>
<path d="M56866682 47457380
L57100016 48457380
L57333349 47457380
" />
<path d="M57900016 48457380
L57566682 48457380
L57566682 47457380
" />
<path d="M59566682 47505000
L59500016 47457380
L59400016 47457380
L59300016 47505000
L59233349 47600238
L59200016 47695476
L59166682 47885952
L59166682 48028809
L59200016 48219285
L59233349 48314523
L59300016 48409761
L59400016 48457380
L59466682 48457380
L59566682 48409761
L59600016 48362142
L59600016 48028809
L59466682 48028809
" />
<path d="M59900016 48457380
L59900016 47457380
L60300016 48457380
L60300016 47457380
" />
<path d="M60633349 48457380
L60633349 47457380
L60800016 47457380
L60900016 47505000
L60966682 47600238
L61000016 47695476
L61033349 47885952
L61033349 48028809
L61000016 48219285
L60966682 48314523
L60900016 48409761
L60800016 48457380
L60633349 48457380
" />
<path d="M61766682 47457380
L62000016 48457380
L62233349 47457380
" />
<path d="M62866682 48362142
L62833349 48409761
L62733349 48457380
L62666682 48457380
L62566682 48409761
L62500016 48314523
L62466682 48219285
L62433349 48028809
L62433349 47885952
L62466682 47695476
L62500016 47600238
L62566682 47505000
L62666682 47457380
L62733349 47457380
L62833349 47505000
L62866682 47552619
" />
<path d="M63566682 48362142
L63533349 48409761
L63433349 48457380
L63366682 48457380
L63266682 48409761
L63200016 48314523
L63166682 48219285
L63133349 48028809
L63133349 47885952
L63166682 47695476
L63200016 47600238
L63266682 47505000
L63366682 47457380
L63433349 47457380
L63533349 47505000
L63566682 47552619
" />
<path d="M64366682 48409761
L64466682 48457380
L64633349 48457380
L64700016 48409761
L64733349 48362142
L64766682 48266904
L64766682 48171666
L64733349 48076428
L64700016 48028809
L64633349 47981190
L64500016 47933571
L64433349 47885952
L64400016 47838333
L64366682 47743095
L64366682 47647857
L64400016 47552619
L64433349 47505000
L64500016 47457380
L64666682 47457380
L64766682 47505000
" />
<path d="M65066682 48457380
L65066682 47457380
L65233349 47457380
L65333349 47505000
L65400016 47600238
L65433349 47695476
L65466682 47885952
L65466682 48028809
L65433349 48219285
L65400016 48314523
L65333349 48409761
L65233349 48457380
L65066682 48457380
" />
<path d="M65733349 48171666
L66066682 48171666
" />
<path d="M65666682 48457380
L65900016 47457380
L66133349 48457380
" />
<path d="M66866682 48409761
L66966682 48457380
L67133349 48457380
L67200016 48409761
L67233349 48362142
L67266682 48266904
L67266682 48171666
L67233349 48076428
L67200016 48028809
L67133349 47981190
L67000016 47933571
L66933349 47885952
L66900016 47838333
L66866682 47743095
L66866682 47647857
L66900016 47552619
L66933349 47505000
L67000016 47457380
L67166682 47457380
L67266682 47505000
" />
<path d="M67966682 48362142
L67933349 48409761
L67833349 48457380
L67766682 48457380
L67666682 48409761
L67600016 48314523
L67566682 48219285
L67533349 48028809
L67533349 47885952
L67566682 47695476
L67600016 47600238
L67666682 47505000
L67766682 47457380
L67833349 47457380
L67933349 47505000
L67966682 47552619
" />
<path d="M68600016 48457380
L68266682 48457380
L68266682 47457380
" />
<path d="M69366682 48457380
L69366682 47457380
" />
<path d="M69700016 48457380
L69700016 47457380
L70100016 48457380
L70100016 47457380
" />
<path d="M70333349 47457380
L70733349 47457380
" />
<path d="M70533349 48457380
L70533349 47457380
" />
</g><text x="13350016.000000" y="38755000.000000"
textLength="4956905.000000" font-size="1333333.000000" lengthAdjust="spacingAndGlyphs"
text-anchor="middle" opacity="0">TEMP1</text>
<g class="stroked-text"><desc>TEMP1</desc>
<path d="M11064301 37707380
L11635730 37707380
" />
<path d="M11350016 38707380
L11350016 37707380
" />
<path d="M11969063 38183571
L12302396 38183571
" />
<path d="M12445254 38707380
L11969063 38707380
L11969063 37707380
L12445254 37707380
" />
<path d="M12873825 38707380
L12873825 37707380
L13207158 38421666
L13540492 37707380
L13540492 38707380
" />
<path d="M14016682 38707380
L14016682 37707380
L14397635 37707380
L14492873 37755000
L14540492 37802619
L14588111 37897857
L14588111 38040714
L14540492 38135952
L14492873 38183571
L14397635 38231190
L14016682 38231190
" />
<path d="M15540492 38707380
L14969063 38707380
" />
<path d="M15254777 38707380
L15254777 37707380
L15159539 37850238
L15064301 37945476
L14969063 37993095
" />
</g><text x="14550016.000000" y="43250000.000000"
textLength="9828333.000000" font-size="933333.000000" lengthAdjust="spacingAndGlyphs"
text-anchor="middle" opacity="0">VCC GND SCL SDA</text>
<g class="stroked-text"><desc>VCC GND SCL SDA</desc>
<path d="M9800016 42202380
L10033349 43202380
L10266682 42202380
" />
<path d="M10900016 43107142
L10866682 43154761
L10766682 43202380
L10700016 43202380
L10600016 43154761
L10533349 43059523
L10500016 42964285
L10466682 42773809
L10466682 42630952
L10500016 42440476
L10533349 42345238
L10600016 42250000
L10700016 42202380
L10766682 42202380
L10866682 42250000
L10900016 42297619
" />
<path d="M11600016 43107142
L11566682 43154761
L11466682 43202380
L11400016 43202380
L11300016 43154761
L11233349 43059523
L11200016 42964285
L11166682 42773809
L11166682 42630952
L11200016 42440476
L11233349 42345238
L11300016 42250000
L11400016 42202380
L11466682 42202380
L11566682 42250000
L11600016 42297619
" />
<path d="M12800016 42250000
L12733349 42202380
L12633349 42202380
L12533349 42250000
L12466682 42345238
L12433349 42440476
L12400016 42630952
L12400016 42773809
L12433349 42964285
L12466682 43059523
L12533349 43154761
L12633349 43202380
L12700016 43202380
L12800016 43154761
L12833349 43107142
L12833349 42773809
L12700016 42773809
" />
<path d="M13133349 43202380
L13133349 42202380
L13533349 43202380
L13533349 42202380
" />
<path d="M13866682 43202380
L13866682 42202380
L14033349 42202380
L14133349 42250000
L14200016 42345238
L14233349 42440476
L14266682 42630952
L14266682 42773809
L14233349 42964285
L14200016 43059523
L14133349 43154761
L14033349 43202380
L13866682 43202380
" />
<path d="M15066682 43154761
L15166682 43202380
L15333349 43202380
L15400016 43154761
L15433349 43107142
L15466682 43011904
L15466682 42916666
L15433349 42821428
L15400016 42773809
L15333349 42726190
L15200016 42678571
L15133349 42630952
L15100016 42583333
L15066682 42488095
L15066682 42392857
L15100016 42297619
L15133349 42250000
L15200016 42202380
L15366682 42202380
L15466682 42250000
" />
<path d="M16166682 43107142
L16133349 43154761
L16033349 43202380
L15966682 43202380
L15866682 43154761
L15800016 43059523
L15766682 42964285
L15733349 42773809
L15733349 42630952
L15766682 42440476
L15800016 42345238
L15866682 42250000
L15966682 42202380
L16033349 42202380
L16133349 42250000
L16166682 42297619
" />
<path d="M16800016 43202380
L16466682 43202380
L16466682 42202380
" />
<path d="M17533349 43154761
L17633349 43202380
L17800016 43202380
L17866682 43154761
L17900016 43107142
L17933349 43011904
L17933349 42916666
L17900016 42821428
L17866682 42773809
L17800016 42726190
L17666682 42678571
L17600016 42630952
L17566682 42583333
L17533349 42488095
L17533349 42392857
L17566682 42297619
L17600016 42250000
L17666682 42202380
L17833349 42202380
L17933349 42250000
" />
<path d="M18233349 43202380
L18233349 42202380
L18400016 42202380
L18500016 42250000
L18566682 42345238
L18600016 42440476
L18633349 42630952
L18633349 42773809
L18600016 42964285
L18566682 43059523
L18500016 43154761
L18400016 43202380
L18233349 43202380
" />
<path d="M18900016 42916666
L19233349 42916666
" />
<path d="M18833349 43202380
L19066682 42202380
L19300016 43202380
" />
</g></g>
<g style="fill:#000000; fill-opacity:0.0; 
stroke:#000000; stroke-width:120000.000000; stroke-opacity:1; 
stroke-linecap:round; stroke-linejoin:round;">
<path d="M25805016 12550000
L25805016 550000
" />
<path d="M27505016 12550000
L57505016 12550000
" />
<path d="M57505016 12550000
L57505016 550000
" />
<path d="M57505016 550000
L27505016 550000
" />
<path d="M27505016 550000
L27505016 12550000
" />
<path d="M55505016 10550000
L33505016 10550000
" />
<path d="M33505016 10550000
L33505016 4550000
" />
<path d="M33505016 4550000
L55505016 4550000
" />
<path d="M55505016 4550000
L55505016 10550000
" />
<path d="M49254704.000000 23050000.000000 A5000000.000000 5000000.000000 0.0 0 0 39254704.000000 23050000.000000" />
<circle cx="44254704.000000" cy="23050000.000000" r="8000000.000000" /> 
<circle cx="44300016.000000" cy="41550000.000000" r="8348653.000000" /> 
<path d="M30550016 33655000
L30550016 33855000
" />
<path d="M22550016 33855000
L22550016 31855000
" />
<path d="M30550016 31855000
L30550016 33655000
" />
<path d="M22550016 31855000
L30550016 31855000
" />
<path d="M24050016 37455000
L29050016 37455000
" />
<path d="M29050016 37455000
L29050016 39455000
" />
<path d="M29050016 39455000
L24050016 39455000
" />
<path d="M24050016 39455000
L24050016 37455000
" />
<path d="M71550016 30305000
L71550016 34305000
" />
<path d="M56050016 30305000
L56050016 34305000
" />
<path d="M56050016 30305000
L71550016 30305000
" />
<path d="M62600016 33505000
L65000016 33505000
" />
<path d="M65000016 33505000
L65000016 37505000
" />
<path d="M65000016 37505000
L62600016 37505000
" />
<path d="M62600016 37505000
L62600016 33505000
" />
<path d="M9350016 32055000
L19750016 32055000
" />
<path d="M19750016 32055000
L19750016 34055000
" />
<path d="M9350016 32055000
L9350016 34055000
" />
<path d="M9350016 34055000
L9350016 32055000
" />
<path d="M17750016 34055000
L15250016 34055000
" />
<path d="M15250016 34055000
L15250016 36555000
" />
<path d="M15250016 36555000
L17750016 36555000
" />
<path d="M17750016 36555000
L17750016 34055000
" />
</g>
<g style="fill:#000000; fill-opacity:1.0; 
stroke:#000000; stroke-width:1.000000; stroke-opacity:1; 
stroke-linecap:round; stroke-linejoin:round;">
<path style="fill:#000000; fill-opacity:1.0; 
stroke:#000000; stroke-width:1.000000; stroke-opacity:1; 
stroke-linecap:round; stroke-linejoin:round;fill-rule:evenodd;"
d="M 11281315.000000,16542191.000000
11264717.000000,16499017.000000
11256664.000000,16468833.000000
11257200.000000,16460806.000000
11255320.000000,16443702.000000
11241817.000000,16409277.000000
11233056.000000,16391165.000000
11215673.000000,16352122.000000
11208618.000000,16325749.000000
11209660.000000,16320777.000000
11209565.000000,16302486.000000
11198953.000000,16267502.000000
11194914.000000,16257368.000000
11181880.000000,16220218.000000
11178377.000000,16197063.000000
11179353.000000,16194776.000000
11178694.000000,16177054.000000
11169181.000000,16154339.000000
11152944.000000,16114019.000000
11147274.000000,16089963.000000
11140909.000000,16057625.000000
11129134.000000,16008260.000000
11119852.000000,15972589.000000
11107096.000000,15899884.000000
11101315.000000,15811250.000000
11102678.000000,15720657.000000
11111356.000000,15642070.000000
11115594.000000,15622182.000000
11155767.000000,15518428.000000
11225886.000000,15408410.000000
11325419.000000,15292825.000000
11453838.000000,15172373.000000
11463178.000000,15164386.000000
11487262.000000,15143162.000000
11528603.000000,15105981.000000
11581446.000000,15058046.000000
11640035.000000,15004559.000000
11641216.000000,15003477.000000
11699130.000000,14950521.000000
11750669.000000,14903558.000000
11790350.000000,14867572.000000
11812690.000000,14847548.000000
11813123.000000,14847169.000000
11835149.000000,14827410.000000
11875267.000000,14790942.000000
11928584.000000,14742246.000000
11990209.000000,14685805.000000
12055249.000000,14626100.000000
12118812.000000,14567611.000000
12176006.000000,14514821.000000
12182763.000000,14508569.000000
12247571.000000,14448585.000000
12246727.000000,14132544.000000
12245883.000000,13816504.000000
12150657.000000,13730857.000000
12092590.000000,13678833.000000
12031254.000000,13624201.000000
11979764.000000,13578638.000000
11979009.000000,13577974.000000
11924913.000000,13529528.000000
11868163.000000,13477414.000000
11837129.000000,13448215.000000
11791423.000000,13406038.000000
11746609.000000,13367014.000000
11725981.000000,13350229.000000
11690609.000000,13320910.000000
11636370.000000,13273143.000000
11562338.000000,13206089.000000
11467586.000000,13118910.000000
11363536.000000,13022277.000000
11320095.000000,12983214.000000
11284982.000000,12954241.000000
11264660.000000,12940630.000000
11262956.000000,12940215.000000
11250879.000000,12928148.000000
11250447.000000,12923902.000000
11240651.000000,12902354.000000
11216707.000000,12871279.000000
11213101.000000,12867314.000000
11188762.000000,12832748.000000
11159944.000000,12779788.000000
11132630.000000,12719503.000000
11131050.000000,12715596.000000
11095744.000000,12586858.000000
11086568.000000,12443491.000000
11103513.000000,12288013.000000
11132909.000000,12166492.000000
11167071.000000,12049633.000000
11192581.000000,11959643.000000
11210267.000000,11893602.000000
11210432.000000,11892954.000000
11220246.000000,11862085.000000
11234816.000000,11822615.000000
11249796.000000,11780271.000000
11258883.000000,11747693.000000
11271527.000000,11699606.000000
11294505.000000,11630781.000000
11328796.000000,11538423.000000
11362390.000000,11452375.000000
11387372.000000,11387667.000000
11407261.000000,11332988.000000
11419584.000000,11295329.000000
11422385.000000,11282780.000000
11428755.000000,11261398.000000
11445830.000000,11219265.000000
11470552.000000,11163698.000000
11484908.000000,11132995.000000
11512190.000000,11074504.000000
11533440.000000,11026914.000000
11545652.000000,10997063.000000
11547431.000000,10990814.000000
11554114.000000,10972753.000000
11572370.000000,10932428.000000
11599507.000000,10875244.000000
11632836.000000,10806610.000000
11669667.000000,10731930.000000
11707309.000000,10656613.000000
11743073.000000,10586064.000000
11774267.000000,10525691.000000
11798201.000000,10480899.000000
11812186.000000,10457095.000000
11814161.000000,10454766.000000
11826544.000000,10435096.000000
11837056.000000,10403966.000000
11849168.000000,10372989.000000
11861741.000000,10361138.000000
11875358.000000,10349270.000000
11875677.000000,10346062.000000
11883346.000000,10326607.000000
11903785.000000,10287831.000000
11933144.000000,10236891.000000
11945061.000000,10217108.000000
12034521.000000,10088559.000000
12129922.000000,9987677.000000
12154635.000000,9966703.000000
12190330.000000,9944280.000000
12245030.000000,9916803.000000
12308033.000000,9888953.000000
12368634.000000,9865409.000000
12416132.000000,9850849.000000
12422754.000000,9849491.000000
12467595.000000,9845236.000000
12539280.000000,9843123.000000
12633472.000000,9843055.000000
12745836.000000,9844935.000000
12872034.000000,9848665.000000
13007729.000000,9854148.000000
13148584.000000,9861287.000000
13266816.000000,9868432.000000
13326601.000000,9871869.000000
13407887.000000,9875908.000000
13500930.000000,9880095.000000
13595988.000000,9883975.000000
13616618.000000,9884757.000000
13849190.000000,9893444.000000
14074449.000000,9670091.000000
14299707.000000,9446738.000000
14291346.000000,9321692.000000
14286560.000000,9246852.000000
14281115.000000,9156737.000000
14275965.000000,9067292.000000
14274478.000000,9040338.000000
14269925.000000,8957588.000000
14265118.000000,8871641.000000
14260868.000000,8796965.000000
14259572.000000,8774615.000000
14251172.000000,8629553.000000
14244128.000000,8505557.000000
17020720.000000,8505557.000000
17024523.000000,8514292.000000
17040262.000000,8531073.000000
17049310.000000,8527631.000000
17049462.000000,8525445.000000
17038360.000000,8512225.000000
17031416.000000,8507400.000000
17020720.000000,8505557.000000
14244128.000000,8505557.000000
14243200.000000,8489218.000000
14236086.000000,8361281.000000
14230259.000000,8253415.000000
14228166.000000,8213364.000000
14234155.000000,8056045.000000
14268556.000000,7909730.000000
14300090.000000,7833375.000000
14333717.000000,7778910.000000
14382907.000000,7716940.000000
14439487.000000,7656303.000000
14495285.000000,7605839.000000
14537182.000000,7576904.000000
14583972.000000,7550970.000000
14637221.000000,7520161.000000
14689502.000000,7488950.000000
14733385.000000,7461808.000000
14761444.000000,7443208.000000
14767370.000000,7438329.000000
14785938.000000,7426395.000000
14820992.000000,7410098.000000
14825985.000000,7408047.000000
14859775.000000,7391679.000000
14876421.000000,7378319.000000
14876785.000000,7376905.000000
14889966.000000,7365352.000000
14922683.000000,7349899.000000
14933198.000000,7345911.000000
14984833.000000,7322774.000000
15037865.000000,7292641.000000
15044795.000000,7288064.000000
15083428.000000,7264704.000000
15113233.000000,7251625.000000
15119135.000000,7250615.000000
15144607.000000,7241810.000000
15175569.000000,7222343.000000
15199958.000000,7208729.000000
15248424.000000,7185526.000000
15316065.000000,7154811.000000
15397983.000000,7118660.000000
15489277.000000,7079147.000000
15585047.000000,7038350.000000
15680392.000000,6998343.000000
15770413.000000,6961204.000000
15850209.000000,6929007.000000
15914881.000000,6903828.000000
15959528.000000,6887743.000000
15976820.000000,6882912.000000
16005195.000000,6875723.000000
16054920.000000,6860387.000000
16117969.000000,6839453.000000
16161987.000000,6824158.000000
16225684.000000,6802479.000000
16277662.000000,6786387.000000
16311443.000000,6777792.000000
16320863.000000,6777319.000000
16338036.000000,6776011.000000
16363909.000000,6764883.000000
16406773.000000,6746368.000000
16447310.000000,6733409.000000
16555539.000000,6705885.000000
16638641.000000,6685486.000000
16701655.000000,6671149.000000
16749624.000000,6661807.000000
16787589.000000,6656399.000000
16820591.000000,6653857.000000
16824941.000000,6653676.000000
16920291.000000,6654786.000000
17006862.000000,6667322.000000
17088529.000000,6693548.000000
17169168.000000,6735729.000000
17252655.000000,6796132.000000
17342866.000000,6877020.000000
17443676.000000,6980659.000000
17510570.000000,7054376.000000
17563226.000000,7113165.000000
17614721.000000,7170057.000000
17657427.000000,7216648.000000
17674693.000000,7235143.000000
17708501.000000,7271383.000000
17756020.000000,7322928.000000
17809996.000000,7381893.000000
17846631.000000,7422139.000000
17903267.000000,7484250.000000
17960721.000000,7546810.000000
18010681.000000,7600786.000000
18034201.000000,7625930.000000
18079825.000000,7675226.000000
18124262.000000,7724624.000000
18149570.000000,7753708.000000
18194601.000000,7806817.000000
18834303.000000,7800135.000000
18930529.000000,7693880.000000
18989330.000000,7629098.000000
19055075.000000,7556889.000000
19114589.000000,7491722.000000
19120539.000000,7485223.000000
19169969.000000,7430716.000000
19217472.000000,7377429.000000
19254483.000000,7334992.000000
19261216.000000,7327060.000000
19334371.000000,7242199.000000
19422447.000000,7143416.000000
19518125.000000,7038759.000000
19614085.000000,6936273.000000
19666083.000000,6881933.000000
19729049.000000,6818242.000000
19778327.000000,6772970.000000
19820736.000000,6740941.000000
19863094.000000,6716977.000000
19909846.000000,6696830.000000
19967762.000000,6675015.000000
20018890.000000,6657334.000000
20052055.000000,6647643.000000
20126585.000000,6639946.000000
20220817.000000,6643067.000000
20325381.000000,6656335.000000
20407182.000000,6673078.000000
20471246.000000,6688450.000000
20525770.000000,6701377.000000
20562060.000000,6709805.000000
20569488.000000,6711448.000000
20615699.000000,6723172.000000
20682115.000000,6742475.000000
20759470.000000,6766507.000000
20838499.000000,6792416.000000
20886816.000000,6809069.000000
20943466.000000,6828456.000000
20990455.000000,6843423.000000
21018367.000000,6850984.000000
21019677.000000,6851207.000000
21049067.000000,6859428.000000
21090787.000000,6875067.000000
21097831.000000,6878017.000000
21144796.000000,6896553.000000
21204479.000000,6918221.000000
21238508.000000,6929848.000000
21357252.000000,6972177.000000
21481334.000000,7021415.000000
21595969.000000,7071577.000000
21637093.000000,7091162.000000
21696433.000000,7119053.000000
21754203.000000,7144175.000000
21789493.000000,7157984.000000
21826517.000000,7173921.000000
21846799.000000,7188145.000000
21848108.000000,7191232.000000
21860322.000000,7203120.000000
21865713.000000,7203723.000000
21889856.000000,7211224.000000
21936966.000000,7232326.000000
22002979.000000,7264926.000000
22083833.000000,7306920.000000
22175462.000000,7356207.000000
22273804.000000,7410684.000000
22356108.000000,7457468.000000
22403971.000000,7483831.000000
22444202.000000,7503960.000000
22461616.000000,7511206.000000
22484715.000000,7525054.000000
22488970.000000,7533792.000000
22501657.000000,7546050.000000
22512416.000000,7547600.000000
22533217.000000,7556040.000000
22535862.000000,7563231.000000
22547953.000000,7578160.000000
22553029.000000,7578861.000000
22579637.000000,7592154.000000
22615527.000000,7628551.000000
22656755.000000,7682829.000000
22699379.000000,7749764.000000
22739456.000000,7824133.000000
22741808.000000,7828954.000000
22772588.000000,7894587.000000
22791698.000000,7944424.000000
22801986.000000,7990352.000000
22806304.000000,8044260.000000
22807385.000000,8102492.000000
22806914.000000,8176864.000000
22804643.000000,8276915.000000
22800782.000000,8397127.000000
22795538.000000,8531982.000000
22789120.000000,8675962.000000
22781736.000000,8823550.000000
22776716.000000,8915292.000000
22772691.000000,8993865.000000
22768463.000000,9088746.000000
22764675.000000,9184991.000000
22763021.000000,9232855.000000
22757297.000000,9409740.000000
22804597.000000,9451686.000000
22845217.000000,9489116.000000
22895986.000000,9537979.000000
22952608.000000,9593888.000000
23010787.000000,9652456.000000
23066225.000000,9709295.000000
23114628.000000,9760018.000000
23151699.000000,9800238.000000
23173141.000000,9825568.000000
23176724.000000,9831691.000000
23190114.000000,9842170.000000
23221496.000000,9848019.000000
23257692.000000,9846955.000000
23261289.000000,9846339.000000
23282367.000000,9844494.000000
23326791.000000,9841820.000000
23386674.000000,9838770.000000
23417597.000000,9837349.000000
23505386.000000,9833026.000000
23603899.000000,9827527.000000
23693104.000000,9821977.000000
23700354.000000,9821489.000000
23781216.000000,9816201.000000
23866599.000000,9810944.000000
23940082.000000,9806723.000000
23950447.000000,9806169.000000
24024019.000000,9802274.000000
24118753.000000,9797232.000000
24224593.000000,9791580.000000
24331485.000000,9785855.000000
24429374.000000,9780595.000000
24502061.000000,9776672.000000
24549923.000000,9776479.000000
24583607.000000,9780813.000000
24593018.000000,9785566.000000
24611202.000000,9791801.000000
24616651.000000,9789443.000000
24637784.000000,9789469.000000
24677152.000000,9798493.000000
24725534.000000,9813352.000000
24773708.000000,9830883.000000
24812455.000000,9847924.000000
24832552.000000,9861312.000000
24833585.000000,9863844.000000
24846286.000000,9875159.000000
24857031.000000,9876585.000000
24877832.000000,9885025.000000
24880477.000000,9892215.000000
24892660.000000,9907009.000000
24898448.000000,9907846.000000
24919087.000000,9918921.000000
24952050.000000,9947237.000000
24990375.000000,9985431.000000
25027100.000000,10026140.000000
25055263.000000,10062002.000000
25067903.000000,10085653.000000
25068047.000000,10087217.000000
25075889.000000,10110074.000000
25080691.000000,10113651.000000
25094467.000000,10128877.000000
25118398.000000,10163764.000000
25147122.000000,10210459.000000
25181165.000000,10268145.000000
25214563.000000,10324272.000000
25235411.000000,10358951.000000
25266053.000000,10411888.000000
25297105.000000,10469027.000000
25301944.000000,10478369.000000
25326240.000000,10524906.000000
25358359.000000,10585280.000000
25389219.000000,10642492.000000
25424588.000000,10710569.000000
25460541.000000,10784560.000000
25484658.000000,10837877.000000
25507080.000000,10887231.000000
25526156.000000,10924005.000000
25537056.000000,10939477.000000
25547728.000000,10956480.000000
25567099.000000,10996321.000000
25592528.000000,11052708.000000
25621378.000000,11119346.000000
25651007.000000,11189941.000000
25678776.000000,11258199.000000
25702045.000000,11317827.000000
25718175.000000,11362531.000000
25724525.000000,11386016.000000
25724539.000000,11386488.000000
25730695.000000,11411243.000000
25746886.000000,11455030.000000
25769695.000000,11508663.000000
25771256.000000,11512119.000000
25793053.000000,11564268.000000
25806893.000000,11605533.000000
25810065.000000,11627702.000000
25809694.000000,11628547.000000
25810694.000000,11650078.000000
25823972.000000,11685365.000000
25826869.000000,11691166.000000
25847881.000000,11740655.000000
25870341.000000,11806956.000000
25889925.000000,11876156.000000
25902184.000000,11933524.000000
25910586.000000,11967456.000000
25916693.000000,11981512.000000
25927069.000000,12007832.000000
25934043.000000,12034726.000000
25941617.000000,12067839.000000
25954413.000000,12120795.000000
25969901.000000,12183153.000000
25972771.000000,12194535.000000
25988040.000000,12271247.000000
25997870.000000,12354259.000000
26001952.000000,12435182.000000
25999977.000000,12505627.000000
25991635.000000,12557206.000000
25986611.000000,12570356.000000
25972403.000000,12608440.000000
25964578.000000,12640361.000000
25955334.000000,12673983.000000
25946299.000000,12689790.000000
25932339.000000,12708268.000000
25913225.000000,12741948.000000
25912083.000000,12744186.000000
25885237.000000,12783502.000000
25836853.000000,12839680.000000
25769674.000000,12909893.000000
25686440.000000,12991310.000000
25589894.000000,13081103.000000
25555104.000000,13112517.000000
25495126.000000,13166494.000000
25437194.000000,13218986.000000
25389233.000000,13262796.000000
25366210.000000,13284092.000000
25327724.000000,13319566.000000
25274988.000000,13367528.000000
25217120.000000,13419703.000000
25194017.000000,13440400.000000
25136710.000000,13491902.000000
25080831.000000,13542588.000000
25035484.000000,13584185.000000
25022031.000000,13596708.000000
24973483.000000,13641162.000000
24922385.000000,13686383.000000
24907580.000000,13699108.000000
24851455.000000,13746800.000000
24854616.000000,14067185.000000
24857776.000000,14387570.000000
24926050.000000,14449339.000000
24969775.000000,14488619.000000
25009054.000000,14523439.000000
25027277.000000,14539293.000000
25059233.000000,14567136.000000
25108377.000000,14610569.000000
25168692.000000,14664236.000000
25234156.000000,14722782.000000
25294693.000000,14777193.000000
25338839.000000,14816662.000000
25394514.000000,14865998.000000
25449675.000000,14914532.000000
25449758.000000,14914605.000000
25507086.000000,14965548.000000
25566833.000000,15019789.000000
25613881.000000,15063535.000000
25664623.000000,15110187.000000
25717721.000000,15156787.000000
25746396.000000,15180765.000000
25790157.000000,15218410.000000
25828880.000000,15255311.000000
25840180.000000,15267371.000000
25870052.000000,15300648.000000
25892570.000000,15324870.000000
25909461.000000,15349681.000000
25912108.000000,15359760.000000
25920979.000000,15381307.000000
25942361.000000,15412859.000000
25942806.000000,15413425.000000
25966459.000000,15453689.000000
25987607.000000,15505968.000000
25992140.000000,15521041.000000
26001042.000000,15571076.000000
26007361.000000,15640124.000000
26010856.000000,15718281.000000
26011287.000000,15795645.000000
26008415.000000,15862311.000000
26002000.000000,15908378.000000
26001555.000000,15910061.000000
25992490.000000,15944126.000000
25978579.000000,15997580.000000
25962657.000000,16059511.000000
25960906.000000,16066369.000000
25944062.000000,16129389.000000
25927652.000000,16185822.000000
25914996.000000,16224306.000000
25914121.000000,16226585.000000
25903861.000000,16256860.000000
25902777.000000,16269568.000000
25902809.000000,16269569.000000
25900065.000000,16283423.000000
25888676.000000,16321405.000000
25870341.000000,16378141.000000
25846762.000000,16448261.000000
25839693.000000,16468861.000000
25813635.000000,16545255.000000
25790959.000000,16613179.000000
25773829.000000,16666041.000000
25764413.000000,16697248.000000
25763668.000000,16700219.000000
25754605.000000,16727865.000000
25735460.000000,16778673.000000
25708517.000000,16847091.000000
25676058.000000,16927567.000000
25640369.000000,17014552.000000
25603733.000000,17102494.000000
25568434.000000,17185842.000000
25536755.000000,17259046.000000
25510982.000000,17316555.000000
25503534.000000,17332461.000000
25458061.000000,17427774.000000
25424147.000000,17498561.000000
25399960.000000,17548543.000000
25383667.000000,17581441.000000
25373438.000000,17600979.000000
25367439.000000,17610878.000000
25365031.000000,17613815.000000
25354235.000000,17631106.000000
25334661.000000,17667416.000000
25318139.000000,17699785.000000
25295277.000000,17744104.000000
25277599.000000,17775838.000000
25270929.000000,17785754.000000
25258762.000000,17804384.000000
25244090.000000,17832646.000000
25162403.000000,17983090.000000
25073420.000000,18109462.000000
24979078.000000,18209365.000000
24882917.000000,18279493.000000
24809522.000000,18316516.000000
24736818.000000,18341440.000000
24656028.000000,18356130.000000
24558374.000000,18362449.000000
24489708.000000,18363008.000000
24438727.000000,18362545.000000
24388921.000000,18361655.000000
24335153.000000,18360141.000000
24272289.000000,18357806.000000
24195195.000000,18354454.000000
24098734.000000,18349887.000000
23977771.000000,18343909.000000
23934816.000000,18341755.000000
23848359.000000,18337604.000000
23744488.000000,18332912.000000
23637031.000000,18328288.000000
23550594.000000,18324767.000000
23469169.000000,18321162.000000
23396401.000000,18317194.000000
23339348.000000,18313302.000000
23305070.000000,18309922.000000
23301570.000000,18309346.000000
23285520.000000,18310318.000000
23264081.000000,18320447.000000
23234231.000000,18342259.000000
23192950.000000,18378277.000000
23137218.000000,18431026.000000
23064014.000000,18503029.000000
23033965.000000,18532988.000000
22956787.000000,18610392.000000
22899143.000000,18669314.000000
22858304.000000,18713215.000000
22831539.000000,18745559.000000
22816117.000000,18769807.000000
22809309.000000,18789421.000000
22808385.000000,18807864.000000
22809295.000000,18817899.000000
22812658.000000,18855824.000000
22817106.000000,18918069.000000
22822224.000000,18997728.000000
22827597.000000,19087897.000000
22832809.000000,19181669.000000
22837446.000000,19272139.000000
22840276.000000,19333200.000000
22842668.000000,19381434.000000
22846534.000000,19451960.000000
22851370.000000,19535870.000000
22856672.000000,19624257.000000
22857516.000000,19638000.000000
22862817.000000,19737722.000000
22867155.000000,19845463.000000
22870069.000000,19947962.000000
22871098.000000,20028769.000000
22870214.000000,20110073.000000
22866414.000000,20170225.000000
22858131.000000,20219308.000000
22843797.000000,20267401.000000
22827142.000000,20311381.000000
22763291.000000,20432446.000000
22672918.000000,20540347.000000
22554962.000000,20636144.000000
22426447.000000,20711814.000000
22389390.000000,20733993.000000
22366738.000000,20751486.000000
22335479.000000,20770843.000000
22308123.000000,20780717.000000
22279397.000000,20792180.000000
22270139.000000,20802490.000000
22256973.000000,20815052.000000
22223657.000000,20832761.000000
22203754.000000,20841291.000000
22162214.000000,20859657.000000
22134532.000000,20875139.000000
22129508.000000,20879610.000000
22112978.000000,20890693.000000
22074561.000000,20911624.000000
22020791.000000,20939224.000000
21958198.000000,20970314.000000
21893316.000000,21001715.000000
21832675.000000,21030249.000000
21782809.000000,21052737.000000
21750249.000000,21066001.000000
21741934.000000,21068215.000000
21720042.000000,21076941.000000
21690001.000000,21096808.000000
21660131.000000,21114736.000000
21611137.000000,21139149.000000
21550906.000000,21166665.000000
21487325.000000,21193903.000000
21428280.000000,21217485.000000
21381660.000000,21234028.000000
21355562.000000,21240154.000000
21332698.000000,21246013.000000
21289059.000000,21261673.000000
21232445.000000,21284252.000000
21206392.000000,21295227.000000
21148687.000000,21318850.000000
21102631.000000,21335685.000000
21075075.000000,21343319.000000
21070476.000000,21343055.000000
21053536.000000,21345003.000000
21016907.000000,21357413.000000
20977822.000000,21373581.000000
20930625.000000,21393342.000000
20895370.000000,21406050.000000
20881799.000000,21408880.000000
20860526.000000,21411603.000000
20819118.000000,21421756.000000
20767034.000000,21436689.000000
20713729.000000,21453749.000000
20683616.000000,21464456.000000
20647393.000000,21475605.000000
20624713.000000,21478219.000000
20624367.000000,21478121.000000
20601866.000000,21481469.000000
20583801.000000,21489291.000000
20564665.000000,21498136.000000
20539286.000000,21506334.000000
20501663.000000,21515295.000000
20445797.000000,21526432.000000
20365689.000000,21541158.000000
20356222.000000,21542863.000000
20221204.000000,21554390.000000
20093936.000000,21538125.000000
19971944.000000,21493190.000000
19852755.000000,21418709.000000
19746925.000000,21326756.000000
19698350.000000,21278258.000000
19659430.000000,21237763.000000
19634817.000000,21210213.000000
19628539.000000,21200943.000000
19618152.000000,21186003.000000
19590852.000000,21155936.000000
19552433.000000,21117106.000000
19550385.000000,21115108.000000
19511574.000000,21076016.000000
19483601.000000,21045382.000000
19472258.000000,21029568.000000
19472231.000000,21029288.000000
19461821.000000,21014643.000000
19434082.000000,20984050.000000
19394257.000000,20943195.000000
19378447.000000,20927538.000000
19335631.000000,20884436.000000
19303070.000000,20849609.000000
19286004.000000,20828741.000000
19284662.000000,20825789.000000
19274275.000000,20810857.000000
19246976.000000,20780797.000000
19208558.000000,20741969.000000
19206508.000000,20739969.000000
19167708.000000,20700949.000000
19139737.000000,20670478.000000
19128382.000000,20654878.000000
19128354.000000,20654603.000000
19118201.000000,20639467.000000
19091832.000000,20609520.000000
19061924.000000,20578359.000000
19015632.000000,20530295.000000
18970039.000000,20480797.000000
18948601.000000,20456413.000000
18901708.000000,20401469.000000
18576874.000000,20404487.000000
18479620.000000,20405665.000000
18393620.000000,20407231.000000
18323536.000000,20409056.000000
18274034.000000,20411012.000000
18249778.000000,20412972.000000
18248132.000000,20413522.000000
18230914.000000,20436064.000000
18198046.000000,20476023.000000
18154626.000000,20527435.000000
18105757.000000,20584335.000000
18056538.000000,20640760.000000
18012069.000000,20690744.000000
17995183.000000,20709312.000000
17908340.000000,20804911.000000
17807259.000000,20917934.000000
17697773.000000,21041839.000000
17654089.000000,21091661.000000
17609145.000000,21142102.000000
17559055.000000,21197006.000000
17539348.000000,21218197.000000
17493261.000000,21268507.000000
17442310.000000,21325820.000000
17417038.000000,21354966.000000
17381040.000000,21393495.000000
17350614.000000,21419871.000000
17334977.000000,21427723.000000
17316624.000000,21436330.000000
17315185.000000,21441457.000000
17302152.000000,21455775.000000
17270198.000000,21472903.000000
17264385.000000,21475293.000000
17220850.000000,21496123.000000
17186636.000000,21518347.000000
17186231.000000,21518689.000000
17165305.000000,21532985.000000
17158877.000000,21532132.000000
17146452.000000,21530173.000000
17116506.000000,21539166.000000
17115893.000000,21539409.000000
17075517.000000,21551405.000000
17021146.000000,21562407.000000
16961671.000000,21571295.000000
16905981.000000,21576949.000000
16862966.000000,21578248.000000
16841517.000000,21574073.000000
16841433.000000,21573991.000000
16825126.000000,21568716.000000
16799018.000000,21563194.000000
16758133.000000,21554195.000000
16695287.000000,21538636.000000
16618535.000000,21518686.000000
16535934.000000,21496515.000000
16455540.000000,21474295.000000
16385409.000000,21454193.000000
16333597.000000,21438381.000000
16324649.000000,21435420.000000
16273523.000000,21419035.000000
16229911.000000,21406701.000000
16215234.000000,21403341.000000
16172128.000000,21391009.000000
16150693.000000,21382272.000000
16118535.000000,21369416.000000
16069367.000000,21352267.000000
16033462.000000,21340695.000000
15971815.000000,21319995.000000
15910991.000000,21297189.000000
15884970.000000,21286356.000000
15834536.000000,21266319.000000
15787877.000000,21251247.000000
15779046.000000,21249051.000000
15734709.000000,21235215.000000
15668994.000000,21209558.000000
15588245.000000,21174705.000000
15498806.000000,21133286.000000
15494201.000000,21131080.000000
15397958.000000,21085329.000000
15309074.000000,21043850.000000
15231783.000000,21008554.000000
15170320.000000,20981351.000000
15128919.000000,20964150.000000
15112280.000000,20958800.000000
15093610.000000,20948263.000000
15093011.000000,20947077.000000
15077607.000000,20935419.000000
15040530.000000,20913763.000000
14988227.000000,20885764.000000
14954939.000000,20868801.000000
14872013.000000,20826707.000000
14796014.000000,20787101.000000
14731970.000000,20752694.000000
14684908.000000,20726196.000000
14659854.000000,20710318.000000
14657954.000000,20708683.000000
14639721.000000,20696586.000000
14607154.000000,20678688.000000
14576994.000000,20659387.000000
14564174.000000,20643726.000000
14564170.000000,20643543.000000
14552111.000000,20631009.000000
14547828.000000,20630554.000000
14519529.000000,20617344.000000
14482085.000000,20581428.000000
14439687.000000,20528375.000000
14396524.000000,20463755.000000
14356784.000000,20393136.000000
14335447.000000,20348199.000000
14317835.000000,20306107.000000
14305720.000000,20269557.000000
14298123.000000,20231246.000000
14294067.000000,20183869.000000
14292575.000000,20120125.000000
14292669.000000,20032709.000000
14292691.000000,20028769.000000
14294089.000000,19922939.000000
14296931.000000,19803359.000000
14300782.000000,19685801.000000
14304540.000000,19598923.000000
14315465.000000,19373612.000000
14325707.000000,19147014.000000
14334560.000000,18934776.000000
14335152.000000,18919775.000000
14340035.000000,18795519.000000
14261328.000000,18724390.000000
14219348.000000,18685036.000000
14163070.000000,18630319.000000
14099822.000000,18567448.000000
14036933.000000,18503635.000000
14036341.000000,18503027.000000
13974344.000000,18440453.000000
13928963.000000,18397859.000000
13895948.000000,18371951.000000
13871043.000000,18359436.000000
13849998.000000,18357018.000000
13848070.000000,18357191.000000
13821346.000000,18359518.000000
13777237.000000,18362648.000000
13713100.000000,18366742.000000
13626291.000000,18371962.000000
13514167.000000,18378470.000000
13374084.000000,18386429.000000
13337154.000000,18388509.000000
13254624.000000,18393249.000000
13166030.000000,18398495.000000
13088722.000000,18403217.000000
13079247.000000,18403811.000000
12985858.000000,18409001.000000
12886402.000000,18413329.000000
12786030.000000,18416704.000000
12689892.000000,18419033.000000
12603138.000000,18420223.000000
12530921.000000,18420182.000000
12478389.000000,18418817.000000
12450695.000000,18416035.000000
12448316.000000,18415147.000000
12416342.000000,18402207.000000
12410154.000000,18400955.000000
12375240.000000,18392268.000000
12330682.000000,18376963.000000
12286100.000000,18358954.000000
12251112.000000,18342156.000000
12235336.000000,18330485.000000
12235185.000000,18329743.000000
12222866.000000,18317949.000000
12216531.000000,18317200.000000
12197354.000000,18306488.000000
12164614.000000,18278928.000000
12125122.000000,18241389.000000
12085685.000000,18200737.000000
12053114.000000,18163839.000000
12034215.000000,18137561.000000
12031985.000000,18131079.000000
12022438.000000,18107970.000000
12012447.000000,18095020.000000
11983722.000000,18056117.000000
11951646.000000,18001457.000000
11924027.000000,17944490.000000
11921389.000000,17938154.000000
11905074.000000,17907566.000000
11890991.000000,17895169.000000
11878203.000000,17881871.000000
11863034.000000,17849032.000000
11860047.000000,17840461.000000
11845068.000000,17804804.000000
11831073.000000,17786427.000000
11828785.000000,17785754.000000
11815796.000000,17772450.000000
11800509.000000,17739586.000000
11797476.000000,17730903.000000
11780440.000000,17688924.000000
11762727.000000,17658826.000000
11760818.000000,17656657.000000
11743785.000000,17631296.000000
11721909.000000,17589290.000000
11711709.000000,17566923.000000
11691595.000000,17524189.000000
11674847.000000,17494714.000000
11669253.000000,17488003.000000
11659760.000000,17471419.000000
11640408.000000,17430328.000000
11613072.000000,17369196.000000
11579627.000000,17292490.000000
11541948.000000,17204679.000000
11501911.000000,17110230.000000
11461390.000000,17013610.000000
11422261.000000,16919287.000000
11386400.000000,16831728.000000
11355680.000000,16755401.000000
11331977.000000,16694773.000000
11317167.000000,16654312.000000
11312970.000000,16639160.000000
11307093.000000,16612070.000000
11294049.000000,16574369.000000
14493831.000000,16574369.000000
14545307.000000,16669244.000000
14573849.000000,16718894.000000
14604379.000000,16764472.000000
14639402.000000,16807858.000000
14681425.000000,16850932.000000
14732954.000000,16895576.000000
14796495.000000,16943669.000000
14874554.000000,16997093.000000
14969638.000000,17057728.000000
15084253.000000,17127455.000000
15220906.000000,17208155.000000
15382101.000000,17301708.000000
15408231.000000,17316781.000000
15547848.000000,17397293.000000
15691240.000000,17480028.000000
15833504.000000,17562154.000000
15969740.000000,17640839.000000
16095044.000000,17713253.000000
16204515.000000,17776562.000000
16293250.000000,17827937.000000
16314816.000000,17840437.000000
16403967.000000,17892080.000000
16514232.000000,17955877.000000
16639640.000000,18028374.000000
16774215.000000,18106122.000000
16911984.000000,18185668.000000
17046974.000000,18263560.000000
17119801.000000,18305559.000000
17251558.000000,18381548.000000
17390338.000000,18461626.000000
17529984.000000,18542238.000000
17664338.000000,18619828.000000
17787244.000000,18690842.000000
17892544.000000,18751724.000000
17939916.000000,18779134.000000
18035884.000000,18834066.000000
18128074.000000,18885699.000000
18211330.000000,18931231.000000
18280496.000000,18967862.000000
18330419.000000,18992792.000000
18346316.000000,18999897.000000
18448899.000000,19028246.000000
18563157.000000,19037089.000000
18676678.000000,19026430.000000
18768847.000000,18999799.000000
18792586.000000,18987897.000000
18839926.000000,18962417.000000
18907709.000000,18925152.000000
18992776.000000,18877892.000000
19091968.000000,18822429.000000
19202125.000000,18760554.000000
19320090.000000,18694058.000000
19442703.000000,18624733.000000
19566806.000000,18554370.000000
19689238.000000,18484760.000000
19806843.000000,18417695.000000
19916460.000000,18354965.000000
20014931.000000,18298362.000000
20099096.000000,18249678.000000
20165798.000000,18210703.000000
20211877.000000,18183228.000000
20234174.000000,18169046.000000
20235016.000000,18168395.000000
20223147.000000,18166598.000000
20187500.000000,18165492.000000
20135555.000000,18165296.000000
20130893.000000,18165326.000000
20075039.000000,18164141.000000
20028878.000000,18157790.000000
19981813.000000,18143479.000000
19923243.000000,18118418.000000
19885931.000000,18100791.000000
19778250.000000,18045007.000000
19696782.000000,17991744.000000
19637336.000000,17936249.000000
19595719.000000,17873771.000000
19567742.000000,17799558.000000
19551149.000000,17721211.000000
19547249.000000,17680531.000000
19543904.000000,17612741.000000
19541114.000000,17521988.000000
19538880.000000,17412419.000000
19537202.000000,17288180.000000
19536081.000000,17153418.000000
19535517.000000,17012279.000000
19535510.000000,16868912.000000
19536062.000000,16727461.000000
19537173.000000,16592074.000000
19538843.000000,16466898.000000
19541072.000000,16356080.000000
19543862.000000,16263765.000000
19547212.000000,16194102.000000
19550963.000000,16152338.000000
19565912.000000,16066353.000000
19586711.000000,15983346.000000
19615300.000000,15898939.000000
19653620.000000,15808749.000000
19703610.000000,15708397.000000
19767211.000000,15593502.000000
19846363.000000,15459683.000000
19887953.000000,15391505.000000
19951883.000000,15288195.000000
20007141.000000,15202304.000000
20057514.000000,15130420.000000
20106790.000000,15069132.000000
20158758.000000,15015030.000000
20217207.000000,14964702.000000
20285923.000000,14914738.000000
20368697.000000,14861726.000000
20469315.000000,14802254.000000
20591567.000000,14732913.000000
20665112.000000,14691729.000000
20765642.000000,14637345.000000
20846419.000000,14599378.000000
20913713.000000,14576922.000000
20973793.000000,14569070.000000
21032929.000000,14574915.000000
21097389.000000,14593551.000000
21163195.000000,14619680.000000
21169622.000000,14620601.000000
21174958.000000,14615598.000000
21179333.000000,14601981.000000
21182877.000000,14577056.000000
21185718.000000,14538132.000000
21187987.000000,14482516.000000
21189811.000000,14407515.000000
21191322.000000,14310439.000000
21192648.000000,14188595.000000
21193919.000000,14039290.000000
21194456.000000,13969201.000000
21195692.000000,13804149.000000
21196941.000000,13667294.000000
21198575.000000,13555577.000000
21200969.000000,13465936.000000
21204497.000000,13395309.000000
21209534.000000,13340636.000000
21216452.000000,13298855.000000
21225627.000000,13266905.000000
21237431.000000,13241724.000000
21252239.000000,13220253.000000
21270425.000000,13199428.000000
21291184.000000,13177444.000000
21331536.000000,13143174.000000
21391220.000000,13102543.000000
21461170.000000,13060706.000000
21532320.000000,13022820.000000
21595603.000000,12994042.000000
21637775.000000,12980307.000000
21687463.000000,12983896.000000
21727611.000000,13016519.000000
21757306.000000,13077161.000000
21769772.000000,13126824.000000
21772058.000000,13154575.000000
21774170.000000,13211215.000000
21776105.000000,13294369.000000
21777865.000000,13401665.000000
21779448.000000,13530728.000000
21780855.000000,13679186.000000
21782084.000000,13844666.000000
21783135.000000,14024794.000000
21784008.000000,14217197.000000
21784703.000000,14419502.000000
21785219.000000,14629335.000000
21785555.000000,14844324.000000
21785711.000000,15062094.000000
21785686.000000,15280274.000000
21785481.000000,15496488.000000
21785095.000000,15708366.000000
21784526.000000,15913532.000000
21783776.000000,16109613.000000
21782843.000000,16294238.000000
21781727.000000,16465031.000000
21780428.000000,16619621.000000
21778945.000000,16755633.000000
21777277.000000,16870695.000000
21775425.000000,16962433.000000
21773387.000000,17028474.000000
21771164.000000,17066444.000000
21770503.000000,17071752.000000
21754502.000000,17140579.000000
21730366.000000,17214390.000000
21716102.000000,17249015.000000
21676602.000000,17335294.000000
21727186.000000,17305768.000000
21756730.000000,17288697.000000
21808097.000000,17259199.000000
21875953.000000,17220329.000000
21954963.000000,17175143.000000
22035677.000000,17129045.000000
22185024.000000,17039010.000000
22307133.000000,16954306.000000
22404999.000000,16872299.000000
22481615.000000,16790356.000000
22539973.000000,16705843.000000
22560625.000000,16667191.000000
22606201.000000,16574369.000000
22615951.000000,15949138.000000
22617428.000000,15839047.000000
22618881.000000,15701189.000000
22620291.000000,15539060.000000
22621639.000000,15356154.000000
22622906.000000,15155965.000000
22624071.000000,14941991.000000
22625117.000000,14717724.000000
22626024.000000,14486660.000000
22626772.000000,14252294.000000
22627342.000000,14018121.000000
22627674.000000,13820839.000000
22627978.000000,13569582.000000
22628168.000000,13347634.000000
22628212.000000,13153045.000000
22628077.000000,12983863.000000
22627731.000000,12838137.000000
22627141.000000,12713914.000000
22626275.000000,12609243.000000
22625101.000000,12522173.000000
22623585.000000,12450753.000000
22621696.000000,12393030.000000
22619402.000000,12347053.000000
22616668.000000,12310871.000000
22613464.000000,12282532.000000
22609757.000000,12260084.000000
22605514.000000,12241577.000000
22601156.000000,12226500.000000
22578349.000000,12162188.000000
22550249.000000,12101976.000000
22514351.000000,12043174.000000
22468147.000000,11983092.000000
22409133.000000,11919037.000000
22334801.000000,11848320.000000
22242647.000000,11768250.000000
22130163.000000,11676137.000000
21994845.000000,11569289.000000
21973734.000000,11552845.000000
21881363.000000,11481140.000000
21795550.000000,11414812.000000
21719820.000000,11356562.000000
21657696.000000,11309091.000000
21612700.000000,11275099.000000
21588357.000000,11257289.000000
21586873.000000,11256290.000000
21551124.000000,11232866.000000
21551124.000000,9945228.000000
21506623.000000,9875737.000000
21429574.000000,9775390.000000
21336687.000000,9694536.000000
21301879.000000,9670993.000000
21232388.000000,9626492.000000
20228629.000000,9626492.000000
20159138.000000,9670819.000000
20081323.000000,9729396.000000
20010603.000000,9798875.000000
19956723.000000,9869360.000000
19946767.000000,9886460.000000
19924679.000000,9920413.000000
19905650.000000,9938256.000000
19902431.000000,9939052.000000
19886939.000000,9929759.000000
19849559.000000,9903282.000000
19793037.000000,9861682.000000
19720119.000000,9807021.000000
19633550.000000,9741362.000000
19536078.000000,9666766.000000
19430447.000000,9585297.000000
19401893.000000,9563171.000000
19254532.000000,9448965.000000
19129417.000000,9352454.000000
19024112.000000,9272149.000000
18936179.000000,9206560.000000
18863183.000000,9154196.000000
18802687.000000,9113568.000000
18752256.000000,9083186.000000
18709452.000000,9061560.000000
18671840.000000,9047199.000000
18636983.000000,9038614.000000
18602445.000000,9034315.000000
18565790.000000,9032812.000000
18534385.000000,9032622.000000
18474603.000000,9037654.000000
18412538.000000,9054229.000000
18344222.000000,9084412.000000
18265687.000000,9130267.000000
18172966.000000,9193861.000000
18062090.000000,9277257.000000
18057647.000000,9280703.000000
17969942.000000,9348673.000000
17872547.000000,9423955.000000
17776106.000000,9498331.000000
17691264.000000,9563585.000000
17674693.000000,9576299.000000
17588556.000000,9642440.000000
17490352.000000,9717991.000000
17392729.000000,9793215.000000
17315185.000000,9853078.000000
17248656.000000,9904444.000000
17163902.000000,9969790.000000
17067492.000000,10044056.000000
16965997.000000,10122183.000000
16865986.000000,10199110.000000
16830631.000000,10226288.000000
16730744.000000,10303140.000000
16625015.000000,10384625.000000
16520545.000000,10465261.000000
16424433.000000,10539568.000000
16343781.000000,10602062.000000
16322631.000000,10618488.000000
16269948.000000,10659432.000000
16195867.000000,10717003.000000
16103675.000000,10788646.000000
15996660.000000,10871806.000000
15878108.000000,10963928.000000
15751309.000000,11062458.000000
15619547.000000,11164842.000000
15486113.000000,11268525.000000
15459523.000000,11289187.000000
15330498.000000,11389952.000000
15206275.000000,11487943.000000
15089578.000000,11580943.000000
14983129.000000,11666740.000000
14889653.000000,11743118.000000
14811872.000000,11807863.000000
14752510.000000,11858760.000000
14714290.000000,11893596.000000
14706549.000000,11901437.000000
14635367.000000,11988833.000000
14572315.000000,12086773.000000
14553658.000000,12121974.000000
14493831.000000,12243025.000000
14493831.000000,16574369.000000
11294049.000000,16574369.000000
11292115.000000,16568780.000000
Z" /> 
<path style="fill:#000000; fill-opacity:1.0; 
stroke:#000000; stroke-width:1.000000; stroke-opacity:1; 
stroke-linecap:round; stroke-linejoin:round;fill-rule:evenodd;"
d="M 16080093.000000,13474373.000000
16159332.000000,13497390.000000
16251145.000000,13533405.000000
16360277.000000,13583168.000000
16491471.000000,13647430.000000
16505106.000000,13654242.000000
16659250.000000,13732703.000000
16788913.000000,13802551.000000
16898427.000000,13867301.000000
16992125.000000,13930469.000000
17074337.000000,13995572.000000
17149395.000000,14066126.000000
17221632.000000,14145646.000000
17295378.000000,14237650.000000
17374966.000000,14345654.000000
17399740.000000,14380445.000000
17471476.000000,14482879.000000
17527414.000000,14565978.000000
17570704.000000,14635270.000000
17604497.000000,14696283.000000
17631945.000000,14754545.000000
17656198.000000,14815585.000000
17670232.000000,14854985.000000
17713442.000000,14980031.000000
17713606.000000,15675600.000000
17713554.000000,15843200.000000
17713241.000000,15982567.000000
17712555.000000,16096729.000000
17711387.000000,16188714.000000
17709628.000000,16261551.000000
17707166.000000,16318267.000000
17703892.000000,16361891.000000
17699697.000000,16395451.000000
17694470.000000,16421974.000000
17688101.000000,16444489.000000
17685402.000000,16452502.000000
17644420.000000,16532437.000000
17580020.000000,16600053.000000
17488684.000000,16658914.000000
17474823.000000,16666021.000000
17335209.000000,16724494.000000
17205753.000000,16755281.000000
17087685.000000,16758167.000000
17020482.000000,16745778.000000
16974754.000000,16729557.000000
16905899.000000,16700346.000000
16818191.000000,16660206.000000
16715907.000000,16611195.000000
16603319.000000,16555372.000000
16484704.000000,16494797.000000
16364334.000000,16431529.000000
16330447.000000,16413369.000000
16230098.000000,16356483.000000
16142499.000000,16299480.000000
16063495.000000,16238253.000000
15988932.000000,16168690.000000
15914655.000000,16086683.000000
15836508.000000,15988123.000000
15750339.000000,15868900.000000
15687258.000000,15777200.000000
15601747.000000,15645222.000000
15535679.000000,15529188.000000
15486015.000000,15423322.000000
15452754.000000,15331723.000000
15443969.000000,15302982.000000
15436710.000000,15275934.000000
15430832.000000,15247382.000000
15426190.000000,15214130.000000
15422638.000000,15172984.000000
15420029.000000,15120748.000000
15418219.000000,15054226.000000
15417062.000000,14970222.000000
15416412.000000,14865541.000000
15416122.000000,14736987.000000
15416049.000000,14581365.000000
15416047.000000,14526738.000000
15416266.000000,14349954.000000
15416972.000000,14201899.000000
15418235.000000,14080042.000000
15420124.000000,13981852.000000
15422711.000000,13904799.000000
15426065.000000,13846353.000000
15430257.000000,13803983.000000
15435357.000000,13775160.000000
15437113.000000,13768646.000000
15477393.000000,13687637.000000
15545660.000000,13616357.000000
15639588.000000,13556881.000000
15706489.000000,13528025.000000
15794010.000000,13497295.000000
15870387.000000,13475815.000000
15940364.000000,13464335.000000
16008685.000000,13463604.000000
Z" /> 
<g >
</g>
<g >
</g>
<g >
</g>
<g >
</g>
<g >
</g>
<g >
</g>
<g >
</g>
<g >
</g>
<g >
</g>
<g >
</g>
<g >
</g>
<g >
</g>
<g >
</g>
<g >
</g>
<g >
</g>
<g >
</g>
<g >
</g>
<g >
</g>
<g >
</g>
<g >
</g>
<g >
</g>
<g >
</g>
<g >
</g>
<g >
</g>
</g>
<g style="fill:#000000; fill-opacity:1.0; 
stroke:#000000; stroke-width:1.000000; stroke-opacity:1; 
stroke-linecap:round; stroke-linejoin:round;">
</g>
<g style="fill:#000000; fill-opacity:1.0; 
stroke:#000000; stroke-width:150000.000000; stroke-opacity:1; 
stroke-linecap:round; stroke-linejoin:round;">
</g>
<g style="fill:#000000; fill-opacity:0.0; 
stroke:#000000; stroke-width:150000.000000; stroke-opacity:1; 
stroke-linecap:round; stroke-linejoin:round;">
<g transform="rotate(-180.000000 44905016.000000 7350000.000000)">
<text x="44905016.000000" y="7850000.000000"
textLength="15385476.000000" font-size="1333333.000000" lengthAdjust="spacingAndGlyphs"
text-anchor="middle" opacity="0">Conn_01x04_Female</text>
</g>
<g class="stroked-text"><desc>Conn_01x04_Female</desc>
<path d="M51690730 6992857
L51738349 6945238
L51881206 6897619
L51976444 6897619
L52119301 6945238
L52214539 7040476
L52262158 7135714
L52309777 7326190
L52309777 7469047
L52262158 7659523
L52214539 7754761
L52119301 7850000
L51976444 7897619
L51881206 7897619
L51738349 7850000
L51690730 7802380
" />
<path d="M51119301 6897619
L51214539 6945238
L51262158 6992857
L51309777 7088095
L51309777 7373809
L51262158 7469047
L51214539 7516666
L51119301 7564285
L50976444 7564285
L50881206 7516666
L50833587 7469047
L50785968 7373809
L50785968 7088095
L50833587 6992857
L50881206 6945238
L50976444 6897619
L51119301 6897619
" />
<path d="M50357396 7564285
L50357396 6897619
" />
<path d="M50357396 7469047
L50309777 7516666
L50214539 7564285
L50071682 7564285
L49976444 7516666
L49928825 7421428
L49928825 6897619
" />
<path d="M49452635 7564285
L49452635 6897619
" />
<path d="M49452635 7469047
L49405016 7516666
L49309777 7564285
L49166920 7564285
L49071682 7516666
L49024063 7421428
L49024063 6897619
" />
<path d="M48785968 6802380
L48024063 6802380
" />
<path d="M47595492 7897619
L47500254 7897619
L47405016 7850000
L47357396 7802380
L47309777 7707142
L47262158 7516666
L47262158 7278571
L47309777 7088095
L47357396 6992857
L47405016 6945238
L47500254 6897619
L47595492 6897619
L47690730 6945238
L47738349 6992857
L47785968 7088095
L47833587 7278571
L47833587 7516666
L47785968 7707142
L47738349 7802380
L47690730 7850000
L47595492 7897619
" />
<path d="M46309777 6897619
L46881206 6897619
" />
<path d="M46595492 6897619
L46595492 7897619
L46690730 7754761
L46785968 7659523
L46881206 7611904
" />
<path d="M45976444 6897619
L45452635 7564285
" />
<path d="M45976444 7564285
L45452635 6897619
" />
<path d="M44881206 7897619
L44785968 7897619
L44690730 7850000
L44643111 7802380
L44595492 7707142
L44547873 7516666
L44547873 7278571
L44595492 7088095
L44643111 6992857
L44690730 6945238
L44785968 6897619
L44881206 6897619
L44976444 6945238
L45024063 6992857
L45071682 7088095
L45119301 7278571
L45119301 7516666
L45071682 7707142
L45024063 7802380
L44976444 7850000
L44881206 7897619
" />
<path d="M43690730 7564285
L43690730 6897619
" />
<path d="M43928825 7945238
L44166920 7230952
L43547873 7230952
" />
<path d="M43405016 6802380
L42643111 6802380
" />
<path d="M42071682 7421428
L42405016 7421428
" />
<path d="M42405016 6897619
L42405016 7897619
L41928825 7897619
" />
<path d="M41166920 6945238
L41262158 6897619
L41452635 6897619
L41547873 6945238
L41595492 7040476
L41595492 7421428
L41547873 7516666
L41452635 7564285
L41262158 7564285
L41166920 7516666
L41119301 7421428
L41119301 7326190
L41595492 7230952
" />
<path d="M40690730 6897619
L40690730 7564285
" />
<path d="M40690730 7469047
L40643111 7516666
L40547873 7564285
L40405016 7564285
L40309777 7516666
L40262158 7421428
L40262158 6897619
" />
<path d="M40262158 7421428
L40214539 7516666
L40119301 7564285
L39976444 7564285
L39881206 7516666
L39833587 7421428
L39833587 6897619
" />
<path d="M38928825 6897619
L38928825 7421428
L38976444 7516666
L39071682 7564285
L39262158 7564285
L39357396 7516666
" />
<path d="M38928825 6945238
L39024063 6897619
L39262158 6897619
L39357396 6945238
L39405016 7040476
L39405016 7135714
L39357396 7230952
L39262158 7278571
L39024063 7278571
L38928825 7326190
" />
<path d="M38309777 6897619
L38405016 6945238
L38452635 7040476
L38452635 7897619
" />
<path d="M37547873 6945238
L37643111 6897619
L37833587 6897619
L37928825 6945238
L37976444 7040476
L37976444 7421428
L37928825 7516666
L37833587 7564285
L37643111 7564285
L37547873 7516666
L37500254 7421428
L37500254 7326190
L37976444 7230952
" />
</g><g transform="rotate(-180.000000 44905016.000000 5850000.000000)">
<text x="44905016.000000" y="6350000.000000"
textLength="4909286.000000" font-size="1333333.000000" lengthAdjust="spacingAndGlyphs"
text-anchor="middle" opacity="0">OLED1</text>
</g>
<g class="stroked-text"><desc>OLED1</desc>
<path d="M46833587 6397619
L46643111 6397619
L46547873 6350000
L46452635 6254761
L46405016 6064285
L46405016 5730952
L46452635 5540476
L46547873 5445238
L46643111 5397619
L46833587 5397619
L46928825 5445238
L47024063 5540476
L47071682 5730952
L47071682 6064285
L47024063 6254761
L46928825 6350000
L46833587 6397619
" />
<path d="M45500254 5397619
L45976444 5397619
L45976444 6397619
" />
<path d="M45166920 5921428
L44833587 5921428
" />
<path d="M44690730 5397619
L45166920 5397619
L45166920 6397619
L44690730 6397619
" />
<path d="M44262158 5397619
L44262158 6397619
L44024063 6397619
L43881206 6350000
L43785968 6254761
L43738349 6159523
L43690730 5969047
L43690730 5826190
L43738349 5635714
L43785968 5540476
L43881206 5445238
L44024063 5397619
L44262158 5397619
" />
<path d="M42738349 5397619
L43309777 5397619
" />
<path d="M43024063 5397619
L43024063 6397619
L43119301 6254761
L43214539 6159523
L43309777 6111904
" />
</g><text x="63800016.000000" y="42005000.000000"
textLength="15385476.000000" font-size="1333333.000000" lengthAdjust="spacingAndGlyphs"
text-anchor="middle" opacity="0">Conn_01x05_Female</text>
<g class="stroked-text"><desc>Conn_01x05_Female</desc>
<path d="M57014301 41862142
L56966682 41909761
L56823825 41957380
L56728587 41957380
L56585730 41909761
L56490492 41814523
L56442873 41719285
L56395254 41528809
L56395254 41385952
L56442873 41195476
L56490492 41100238
L56585730 41005000
L56728587 40957380
L56823825 40957380
L56966682 41005000
L57014301 41052619
" />
<path d="M57585730 41957380
L57490492 41909761
L57442873 41862142
L57395254 41766904
L57395254 41481190
L57442873 41385952
L57490492 41338333
L57585730 41290714
L57728587 41290714
L57823825 41338333
L57871444 41385952
L57919063 41481190
L57919063 41766904
L57871444 41862142
L57823825 41909761
L57728587 41957380
L57585730 41957380
" />
<path d="M58347635 41290714
L58347635 41957380
" />
<path d="M58347635 41385952
L58395254 41338333
L58490492 41290714
L58633349 41290714
L58728587 41338333
L58776206 41433571
L58776206 41957380
" />
<path d="M59252396 41290714
L59252396 41957380
" />
<path d="M59252396 41385952
L59300016 41338333
L59395254 41290714
L59538111 41290714
L59633349 41338333
L59680968 41433571
L59680968 41957380
" />
<path d="M59919063 42052619
L60680968 42052619
" />
<path d="M61109539 40957380
L61204777 40957380
L61300016 41005000
L61347635 41052619
L61395254 41147857
L61442873 41338333
L61442873 41576428
L61395254 41766904
L61347635 41862142
L61300016 41909761
L61204777 41957380
L61109539 41957380
L61014301 41909761
L60966682 41862142
L60919063 41766904
L60871444 41576428
L60871444 41338333
L60919063 41147857
L60966682 41052619
L61014301 41005000
L61109539 40957380
" />
<path d="M62395254 41957380
L61823825 41957380
" />
<path d="M62109539 41957380
L62109539 40957380
L62014301 41100238
L61919063 41195476
L61823825 41243095
" />
<path d="M62728587 41957380
L63252396 41290714
" />
<path d="M62728587 41290714
L63252396 41957380
" />
<path d="M63823825 40957380
L63919063 40957380
L64014301 41005000
L64061920 41052619
L64109539 41147857
L64157158 41338333
L64157158 41576428
L64109539 41766904
L64061920 41862142
L64014301 41909761
L63919063 41957380
L63823825 41957380
L63728587 41909761
L63680968 41862142
L63633349 41766904
L63585730 41576428
L63585730 41338333
L63633349 41147857
L63680968 41052619
L63728587 41005000
L63823825 40957380
" />
<path d="M65061920 40957380
L64585730 40957380
L64538111 41433571
L64585730 41385952
L64680968 41338333
L64919063 41338333
L65014301 41385952
L65061920 41433571
L65109539 41528809
L65109539 41766904
L65061920 41862142
L65014301 41909761
L64919063 41957380
L64680968 41957380
L64585730 41909761
L64538111 41862142
" />
<path d="M65300016 42052619
L66061920 42052619
" />
<path d="M66633349 41433571
L66300016 41433571
" />
<path d="M66300016 41957380
L66300016 40957380
L66776206 40957380
" />
<path d="M67538111 41909761
L67442873 41957380
L67252396 41957380
L67157158 41909761
L67109539 41814523
L67109539 41433571
L67157158 41338333
L67252396 41290714
L67442873 41290714
L67538111 41338333
L67585730 41433571
L67585730 41528809
L67109539 41624047
" />
<path d="M68014301 41957380
L68014301 41290714
" />
<path d="M68014301 41385952
L68061920 41338333
L68157158 41290714
L68300016 41290714
L68395254 41338333
L68442873 41433571
L68442873 41957380
" />
<path d="M68442873 41433571
L68490492 41338333
L68585730 41290714
L68728587 41290714
L68823825 41338333
L68871444 41433571
L68871444 41957380
" />
<path d="M69776206 41957380
L69776206 41433571
L69728587 41338333
L69633349 41290714
L69442873 41290714
L69347635 41338333
" />
<path d="M69776206 41909761
L69680968 41957380
L69442873 41957380
L69347635 41909761
L69300016 41814523
L69300016 41719285
L69347635 41624047
L69442873 41576428
L69680968 41576428
L69776206 41528809
" />
<path d="M70395254 41957380
L70300016 41909761
L70252396 41814523
L70252396 40957380
" />
<path d="M71157158 41909761
L71061920 41957380
L70871444 41957380
L70776206 41909761
L70728587 41814523
L70728587 41433571
L70776206 41338333
L70871444 41290714
L71061920 41290714
L71157158 41338333
L71204777 41433571
L71204777 41528809
L70728587 41624047
" />
</g><text x="63800016.000000" y="43505000.000000"
textLength="4766429.000000" font-size="1333333.000000" lengthAdjust="spacingAndGlyphs"
text-anchor="middle" opacity="0">GEST1</text>
<g class="stroked-text"><desc>GEST1</desc>
<path d="M62276206 42505000
L62180968 42457380
L62038111 42457380
L61895254 42505000
L61800016 42600238
L61752396 42695476
L61704777 42885952
L61704777 43028809
L61752396 43219285
L61800016 43314523
L61895254 43409761
L62038111 43457380
L62133349 43457380
L62276206 43409761
L62323825 43362142
L62323825 43028809
L62133349 43028809
" />
<path d="M62752396 42933571
L63085730 42933571
" />
<path d="M63228587 43457380
L62752396 43457380
L62752396 42457380
L63228587 42457380
" />
<path d="M63609539 43409761
L63752396 43457380
L63990492 43457380
L64085730 43409761
L64133349 43362142
L64180968 43266904
L64180968 43171666
L64133349 43076428
L64085730 43028809
L63990492 42981190
L63800016 42933571
L63704777 42885952
L63657158 42838333
L63609539 42743095
L63609539 42647857
L63657158 42552619
L63704777 42505000
L63800016 42457380
L64038111 42457380
L64180968 42505000
" />
<path d="M64466682 42457380
L65038111 42457380
" />
<path d="M64752396 43457380
L64752396 42457380
" />
<path d="M65895254 43457380
L65323825 43457380
" />
<path d="M65609539 43457380
L65609539 42457380
L65514301 42600238
L65419063 42695476
L65323825 42743095
" />
</g></g>
<g style="fill:#000000; fill-opacity:0.0; 
stroke:#000000; stroke-width:100000.000000; stroke-opacity:1; 
stroke-linecap:round; stroke-linejoin:round;">
<path d="M63805016 12550000
L25805016 12550000
" />
<path d="M25805016 12550000
L25805016 550000
" />
<path d="M25805016 550000
L63805016 550000
" />
<path d="M63805016 550000
L63805016 12550000
" />
<circle cx="44354704.000000" cy="23050000.000000" r="8000625.000000" /> 
<circle cx="39500016.000000" cy="37950000.000000" r="2000000.000000" /> 
<circle cx="44300016.000000" cy="47350000.000000" r="2000000.000000" /> 
<circle cx="49100016.000000" cy="37950000.000000" r="2000000.000000" /> 
<circle cx="44300016.000000" cy="41550000.000000" r="8400000.000000" /> 
<path d="M22550016 45855000
L30550016 45855000
" />
<path d="M30550016 45855000
L30550016 31855000
" />
<path d="M30550016 31855000
L22550016 31855000
" />
<path d="M22550016 31855000
L22550016 45855000
" />
<path d="M56050016 50805000
L71550016 50805000
" />
<path d="M71550016 50805000
L71550016 30305000
" />
<path d="M71550016 30305000
L56050016 30305000
" />
<path d="M56050016 30305000
L56050016 50805000
" />
<path d="M9350016 45855000
L19750016 45855000
" />
<path d="M19750016 45855000
L19750016 32055000
" />
<path d="M19750016 32055000
L9350016 32055000
" />
<path d="M9350016 32055000
L9350016 45855000
" />
<g >
</g>
<g >
</g>
<g >
</g>
<g >
</g>
<g >
</g>
<g >
</g>
<g >
</g>
<g >
</g>
<g >
</g>
<g >
</g>
<g >
</g>
<g >
</g>
<g >
</g>
<g >
</g>
<g >
</g>
<g >
</g>
<g >
</g>
<g >
</g>
<g >
</g>
<g >
</g>
<g >
</g>
<g >
</g>
<g >
</g>
<g >
</g>
</g>
<g style="fill:#000000; fill-opacity:0.0; 
stroke:#000000; stroke-width:100000.000000; stroke-opacity:1; 
stroke-linecap:round; stroke-linejoin:round;">
</g>
<g style="fill:#000000; fill-opacity:0.0; 
stroke:#000000; stroke-width:50000.000000; stroke-opacity:1; 
stroke-linecap:round; stroke-linejoin:round;">
<path d="M88780016 19550000
L81530016 19550000
" />
<path d="M7550016 19550000
L7530016 50000
" />
<path d="M88780016 24550000
L88780016 29550000
" />
<path d="M81530016 54050000
L7530016 54050000
" />
<path d="M7530016 50000
L64550016 50000
" />
<path d="M83780016 29550000
L83780016 24550000
" />
</g>
<g style="fill:#000000; fill-opacity:0.0; 
stroke:#000000; stroke-width:100000.000000; stroke-opacity:1; 
stroke-linecap:round; stroke-linejoin:round;">
<path d="M64550016 50000
L64550016 6250000
" />
</g>
<g style="fill:#000000; fill-opacity:0.0; 
stroke:#000000; stroke-width:50000.000000; stroke-opacity:1; 
stroke-linecap:round; stroke-linejoin:round;">
<path d="M88780016 24550000
L88780016 19550000
" />
<path d="M81550016 6250000
L81530016 19550000
" />
<circle cx="86280016.000000" cy="27050000.000000" r="1750000.000000" /> 
<path d="M88780016 29550000
L83780016 29550000
" />
<path d="M7530016 54050000
L7530016 34549999
" />
</g>
<g style="fill:#000000; fill-opacity:0.0; 
stroke:#000000; stroke-width:100000.000000; stroke-opacity:1; 
stroke-linecap:round; stroke-linejoin:round;">
<path d="M64550016 6250000
L81550016 6250000
" />
</g>
<g style="fill:#000000; fill-opacity:0.0; 
stroke:#000000; stroke-width:50000.000000; stroke-opacity:1; 
stroke-linecap:round; stroke-linejoin:round;">
<path d="M81530016 24550000
L81530016 54050000
" />
</g>
<g style="fill:#000000; fill-opacity:0.0; 
stroke:#000000; stroke-width:100000.000000; stroke-opacity:1; 
stroke-linecap:round; stroke-linejoin:round;">
<path d="M7050016 21550000
L8050016 21550000
" />
<path d="M8050016 21550000
L8050016 32550000
" />
<path d="M8050016 32550000
L7050016 32550000
" />
<path d="M7050016 32550000
L7050016 21550000
" />
<path d="M7550016.000000 19549994.000000 A7500016.000000 7500016.000000 0.0 0 0 7530015.999111 34549999.333340" />
</g>
<g style="fill:#000000; fill-opacity:0.0; 
stroke:#000000; stroke-width:50000.000000; stroke-opacity:1; 
stroke-linecap:round; stroke-linejoin:round;">
<path d="M83780016 24550000
L81530016 24550000
" />
<circle cx="2780016.000000" cy="27050000.000000" r="1750000.000000" /> 
<g >
</g>
<g >
</g>
<g >
</g>
<g >
</g>
<g >
</g>
<g >
</g>
<g >
</g>
<g >
</g>
<g >
</g>
<g >
</g>
<g >
</g>
<g >
</g>
<g >
</g>
<g >
</g>
<g >
</g>
<g >
</g>
<g >
</g>
<g >
</g>
<g >
</g>
<g >
</g>
<g >
</g>
<g >
</g>
<g >
</g>
<g >
</g>
</g> 
</svg>
